<svg xmlns="http://www.w3.org/2000/svg" width="24" height="32" viewBox="0 0 24 32">
  <path fill="#4A4A4A" d="M14.4562988,4.35815431 C14.6865234,3.93847656 14.8176269,3.45727538 14.8176269,2.94580075 C14.8176269,1.32153319 13.4960938,0 11.8718262,0 C10.2475586,0 8.92602538,1.32153319 8.92602538,2.94580075 C8.92602538,3.45825194 9.05786131,3.94042969 9.28881837,4.36059569 C5.09887694,5.49853513 2.00830075,9.33496094 2.00830075,13.8801269 L2.00830075,22.2446289 C0.842285125,22.6369629 0,23.7407226 0,25.0375976 C0,26.6618653 1.32153319,27.9833984 2.94580075,27.9833984 L7.0078125,27.9833984 C7.44726562,30.2680664 9.46069337,32 11.8718262,32 C14.282959,32 16.2961426,30.2680664 16.7358399,27.9833984 L20.7978516,27.9833984 C22.4221191,27.9833984 23.7436524,26.6618652 23.7436524,25.0375976 C23.7436524,23.7407226 22.9013672,22.6369629 21.7353516,22.2446289 L21.7353516,13.9221191 C21.7353516,9.30930619 19.044081,5.5626809 14.4562988,4.35815431 Z M11.8718262,1.875 C12.4621582,1.875 12.9426269,2.35546875 12.9426269,2.94580075 C12.9426269,3.53637694 12.4624024,4.01660156 11.8718262,4.01660156 C11.28125,4.01660156 10.8010254,3.53637694 10.8010254,2.94580075 C10.8010254,2.35546875 11.2814941,1.875 11.8718262,1.875 Z M11.8718262,30.125 C10.5007324,30.125 9.3359375,29.2241211 8.93847656,27.9833984 L14.8051758,27.9833984 C14.4077149,29.2241211 13.2429199,30.125 11.8718262,30.125 Z M19.8603516,13.8801269 L19.8603516,23.0292969 C19.8603516,23.546875 20.2800293,23.9667969 20.7978516,23.9667969 C21.3881836,23.9667969 21.8686524,24.4470215 21.8686524,25.0375976 C21.8686524,25.6279297 21.3884278,26.1083984 20.7978516,26.1083984 L2.94580075,26.1083984 C2.35522463,26.1083984 1.875,25.6281738 1.875,25.0375976 C1.875,24.4470215 2.35522463,23.9667969 2.94580075,23.9667969 C3.46362306,23.9667969 3.88330075,23.546875 3.88330075,23.0292969 L3.88330075,13.8801269 C3.88330075,9.47534181 7.467041,5.89160156 11.8718262,5.89160156 C16.3887747,5.89160156 19.8603516,9.47534181 19.8603516,13.8801269 Z"/>
</svg>
