<svg xmlns="http://www.w3.org/2000/svg" xmlns:xlink="http://www.w3.org/1999/xlink" width="77" height="77" viewBox="0 0 77 77">
  <defs>
    <circle id="arrow_button_white-b" cx="22.5" cy="22.5" r="22.5"/>
    <filter id="arrow_button_white-a" width="231.1%" height="231.1%" x="-65.6%" y="-41.1%" filterUnits="objectBoundingBox">
      <feMorphology in="SourceAlpha" radius="5" result="shadowSpreadOuter1"/>
      <feOffset dy="11" in="shadowSpreadOuter1" result="shadowOffsetOuter1"/>
      <feGaussianBlur in="shadowOffsetOuter1" result="shadowBlurOuter1" stdDeviation="13"/>
      <feColorMatrix in="shadowBlurOuter1" values="0 0 0 0 0.22745098   0 0 0 0 0.0352941176   0 0 0 0 0.0156862745  0 0 0 1 0"/>
    </filter>
  </defs>
  <g fill="none" fill-rule="evenodd" transform="translate(16 5)">
    <use fill="#000" filter="url(#arrow_button_white-a)" xlink:href="#arrow_button_white-b"/>
    <use fill="currentColor" xlink:href="#arrow_button_white-b"/>
    <path fill="#FF6F61" d="M30.6557891,23.5111116 C30.6278666,23.5599761 30.599944,23.6004637 30.5720215,23.6507243 C30.5239947,23.748341 30.4629384,23.8389861 30.3905251,23.9201767 C30.3433407,23.963845 30.2918914,24.0026659 30.2369511,24.0360552 L26.6628673,29.3301669 C26.1712516,29.9823825 25.2822051,30.1872754 24.5547163,29.8160189 C24.2095468,29.6823457 23.9438265,29.3990588 23.8324929,29.0460499 C23.7211593,28.6930409 23.776278,28.3085664 23.9823044,28.0010545 L26.4115645,24.3948597 L15.3961265,24.3948597 C14.6250671,24.3948597 14,23.7697926 14,22.9987332 C14,22.2276738 14.6250671,21.6026067 15.3961265,21.6026067 L26.4115645,21.6026067 L23.9823044,17.9978081 C23.7768212,17.6901578 23.7220129,17.3058948 23.8332903,16.9530642 C23.9445676,16.6002336 24.2099124,16.3169419 24.5547163,16.1828437 C25.2824256,15.8133833 26.1702672,16.0179985 26.6628673,16.6686957 L30.2090286,21.9209236 C30.2318807,21.9388038 30.2508771,21.9611246 30.2648737,21.9865415 C30.3851946,22.0884696 30.48883,22.2085924 30.5720215,22.3425538 C30.6634999,22.502132 30.7161113,22.6810109 30.7255954,22.8647051 C30.7364726,22.8997804 30.7415339,22.9164827 30.7395567,22.9331153 C30.7395567,22.9554533 30.7535179,22.9749991 30.7535179,22.9973371 C30.7535179,23.0196751 30.7395567,23.040617 30.7395567,23.0615589 C30.741499,23.0790483 30.7364842,23.0965999 30.7255954,23.1104233 C30.716644,23.2714354 30.6932141,23.3932706 30.6557891,23.5111116 Z"/>
  </g>
</svg>
