<svg xmlns="http://www.w3.org/2000/svg" width="17" height="14" viewBox="0 0 17 14">
  <path fill="#FFF" fill-rule="evenodd" d="M16.6557891,9.51111164 C16.6278666,9.55997607 16.599944,9.60046374 16.5720215,9.65072429 C16.5239947,9.748341 16.4629384,9.83898613 16.3905251,9.92017671 C16.3433407,9.96384505 16.2918914,10.0026659 16.2369511,10.0360552 L12.6628673,15.3301669 C12.1712516,15.9823825 11.2822051,16.1872754 10.5547163,15.8160189 C10.2095468,15.6823457 9.94382652,15.3990588 9.83249293,15.0460499 C9.72115934,14.6930409 9.77627797,14.3085664 9.98230444,14.0010545 L12.4115645,10.3948597 L1.3961265,10.3948597 C0.625067123,10.3948597 0,9.76979259 0,8.99873322 C0,8.22767385 0.625067123,7.60260673 1.3961265,7.60260673 L12.4115645,7.60260673 L9.98230444,3.99780811 C9.77682123,3.69015777 9.72201294,3.30589478 9.83329029,2.95306417 C9.94456763,2.60023357 10.2099124,2.31694192 10.5547163,2.18284367 C11.2824256,1.81338331 12.1702672,2.01799845 12.6628673,2.66869569 L16.2090286,7.92092357 C16.2318807,7.93880384 16.2508771,7.96112465 16.2648737,7.98654151 C16.3851946,8.08846957 16.48883,8.20859245 16.5720215,8.34255377 C16.6634999,8.50213204 16.7161113,8.68101086 16.7255954,8.86470508 C16.7364726,8.89978039 16.7415339,8.91648271 16.7395567,8.93311527 C16.7395567,8.9554533 16.7535179,8.97499907 16.7535179,8.99733709 C16.7535179,9.01967512 16.7395567,9.04061701 16.7395567,9.06155891 C16.741499,9.07904833 16.7364842,9.09659995 16.7255954,9.11042334 C16.716644,9.27143545 16.6932141,9.39327064 16.6557891,9.51111164 Z" transform="rotate(-180 8.377 8)"/>
</svg>
