<svg xmlns="http://www.w3.org/2000/svg" xmlns:xlink="http://www.w3.org/1999/xlink" width="77" height="77" viewBox="0 0 77 77">
  <defs>
    <circle id="cancel_button_coral-b" cx="22.5" cy="22.5" r="22.5"/>
    <filter id="cancel_button_coral-a" width="231.1%" height="231.1%" x="-65.6%" y="-41.1%" filterUnits="objectBoundingBox">
      <feMorphology in="SourceAlpha" radius="5" result="shadowSpreadOuter1"/>
      <feOffset dy="11" in="shadowSpreadOuter1" result="shadowOffsetOuter1"/>
      <feGaussianBlur in="shadowOffsetOuter1" result="shadowBlurOuter1" stdDeviation="13"/>
      <feColorMatrix in="shadowBlurOuter1" values="0 0 0 0 0.46167346   0 0 0 0 0.163433331   0 0 0 0 0.134437763  0 0 0 1 0"/>
    </filter>
  </defs>
  <g fill="none" fill-rule="evenodd" transform="translate(16 5)">
    <use fill="#000" filter="url(#cancel_button_coral-a)" xlink:href="#cancel_button_coral-b"/>
    <use fill="#FF6F61" xlink:href="#cancel_button_coral-b"/>
    <path fill="#FFF" d="M30.6908742,29.2010408 L29.2000548,30.6910435 C28.7878871,31.1029855 28.1214031,31.1029855 27.7092354,30.6910435 L23,25.9756231 L18.2907646,30.6822788 C17.8785969,31.0942208 17.2121129,31.0942208 16.7999452,30.6822788 L15.3091258,29.1922761 C14.8969581,28.7803342 14.8969581,28.1142153 15.3091258,27.7022733 L20.0183612,22.9956176 L15.3091258,18.2889619 C14.8969581,17.87702 14.8969581,17.2109011 15.3091258,16.7989592 L16.7999452,15.3089565 C17.2121129,14.8970145 17.8785969,14.8970145 18.2907646,15.3089565 L23,20.0156122 L27.7092354,15.3089565 C28.1214031,14.8970145 28.7878871,14.8970145 29.2000548,15.3089565 L30.6908742,16.7989592 C31.1030419,17.2109011 31.1030419,17.87702 30.6908742,18.2889619 L25.9728693,23.0043824 L30.6821047,27.7110381 C31.1030419,28.12298 31.1030419,28.7890989 30.6908742,29.2010408 Z"/>
  </g>
</svg>
