<svg xmlns="http://www.w3.org/2000/svg" width="19" height="19" viewBox="0 0 19 19">
  <path fill="currentColor" d="M9.5,0 C4.25328024,0 0,4.25328024 0,9.5 C0,14.7467198 4.25328024,19 9.5,19 C14.7467198,19 19,14.7467198 19,9.5 C19,4.25328024 14.7467198,0 9.5,0 Z M9.5,1.83870968 C13.7340887,1.83870968 17.1612903,5.26526008 17.1612903,9.5 C17.1612903,13.7340887 13.7347399,17.1612903 9.5,17.1612903 C5.26591129,17.1612903 1.83870968,13.7347399 1.83870968,9.5 C1.83870968,5.26591129 5.26526008,1.83870968 9.5,1.83870968 L9.5,1.83870968 Z M14.8707177,6.82877621 L14.0074435,5.95853024 C13.8286673,5.77829839 13.5376149,5.77711089 13.3573831,5.9559254 L7.94268952,11.3271028 L5.65227016,9.01810484 C5.47349395,8.83787298 5.18244153,8.83668548 5.00220968,9.01546169 L4.1319254,9.87873589 C3.95169355,10.0575121 3.95050605,10.3485645 4.12932056,10.5288347 L7.60681855,14.0344879 C7.78559476,14.2147198 8.07664718,14.2159073 8.25687903,14.0370927 L14.8681512,7.478875 C15.0483448,7.30006048 15.049494,7.00900806 14.8707177,6.82877621 L14.8707177,6.82877621 Z"/>
</svg>
