<svg xmlns="http://www.w3.org/2000/svg" width="96" height="96" viewBox="0 0 96 96">
  <g fill="none" opacity=".4">
    <polygon fill="#FF7149" points="96 5.625 48 5.625 32.429 30.938 96 16.875"/>
    <polygon fill="#FF9441" points="32.429 5.625 48 5.625 48 30.938 32.429 30.938"/>
    <polygon fill="#FF9441" points="96 16.875 24 16.875 48 73.5 96 73.5"/>
    <path fill="#FFB739" d="M48,14.0625 C48,6.3084375 41.6915625,0 33.9375,0 L0,0 L0,73.5 L48,73.5 L48,14.0625 Z"/>
    <path fill="#233952" d="M48,45.375 L35.34375,70.6875 L48,96 C61.9798125,96 73.3125,84.667125 73.3125,70.6875 C73.3125,56.707875 61.9798125,45.375 48,45.375 Z"/>
    <path fill="#1A64B6" d="M22.6875,70.6875 C22.6875,84.667125 34.0201875,96 48,96 L48,45.375 C34.0201875,45.375 22.6875,56.707875 22.6875,70.6875 Z"/>
    <polygon fill="#BFDCFF" points="55.458 62.235 48 69.693 44.25 77.648 48 77.648 59.435 66.213"/>
    <polygon fill="#FFF" points="43.525 74.168 39.548 70.19 35.57 74.168 43.525 82.123 48 77.648 48 69.693"/>
  </g>
</svg>
