<svg xmlns="http://www.w3.org/2000/svg" width="96" height="97" viewBox="0 0 96 97">
  <g fill="none" opacity=".2">
    <path fill="#7F7369" d="M62.06775,46.3100625 L53.60475,46.3100625 C52.3235625,46.3100625 51.2754375,45.26175 51.2754375,43.9805625 L50.110875,24.243375 C50.110875,24.243375 48.2263125,7.8945 58.00125,5.746125 C58.00125,5.746125 61.9756875,-1.987875 74.7043125,0.4899375 C74.8783125,0.523875 75.0455625,0.5863125 75.2145,0.638625 C78.1468125,1.5481875 80.872875,3.1575 83.139375,5.412375 C90.07125,12.310125 88.677375,20.459625 88.8511875,21.47325 C88.8511875,27.1351875 88.940625,20.8419375 87.686625,43.98075 C87.686625,45.2619375 86.6385,46.3100625 85.3573125,46.3100625 L76.35375,46.3100625"/>
    <path fill="#72655A" d="M63.53925,46.309875 L63.53925,43.540125 C58.3074375,41.22825 55.0456875,36.280875 54.7708125,30.85725 C54.7689375,30.82125 54.7633125,30.7070625 54.7625625,30.6856875 C54.7550625,30.493875 54.7501875,30.3016875 54.7501875,30.108 C54.7528125,21.39375 54.7449375,21.9226875 54.75675,21.7794375 C54.669375,17.1285 55.389,7.3715625 62.7864375,5.74575 C62.7864375,5.74575 65.2220625,1.0074375 72.385125,0.136875 C66.9271875,-0.4629375 60.525,1.15875 58.0010625,5.74575 C51.405,7.1955 49.8181875,15.2270625 49.9745625,21.942 C49.9768125,22.0355625 49.97925,22.126875 49.9820625,22.21575 C50.0206875,23.4605625 50.110875,24.243 50.110875,24.243 L51.2754375,43.9801875 C51.2754375,45.261375 52.3235625,46.309875 53.60475,46.309875 C55.6546875,46.309875 61.299,46.309875 63.53925,46.309875 Z"/>
    <path fill="#DD9A5E" d="M42.798,89.48625 L45.301875,67.1120625 C46.179375,60.3560625 45.8195625,57.7605 47.999625,55.11525 C47.3263125,54.296625 46.3651875,53.533125 45.7314375,53.146125 L45.6616875,53.128875 C43.3044375,51.7168125 41.31975,51.65775 36.939375,50.4525 L36.939375,50.4525 L32.46,48.3084375 L32.46,48.3084375 L32.46,42.95775 C28.7071875,44.617125 24.391875,44.5591875 20.7793125,42.9883125 L20.7793125,42.9883125 L20.76,48.3305625 L20.76,48.3305625 L20.76,48.3305625 L20.76,48.3305625 L16.29975,50.4526875 L16.29975,50.4526875 C11.9475,51.65025 9.939375,51.7141875 7.5774375,53.1290625 L7.5076875,53.1463125 C7.3089375,53.267625 7.0989375,53.413875 6.8919375,53.57775 C3.51675,56.0008125 3.4633125,59.1485625 3.1725,61.4746875 L1.8320625,73.4535 L1.8320625,73.4535 C-0.055875,90.5968125 0.0013125,89.21775 0.0013125,90.53925 C-0.0283125,92.715 1.3065,96.0002118 5.3615625,96.0002118 L5.3615625,96.0002118 C5.7376875,96.0002118 47.679375,96.001875 47.999625,95.996625 C44.367,95.935875 42.4798125,93.165 42.798,89.48625 Z"/>
    <path fill="#D38D54" d="M4.8305625 47.595C4.7979375 45.7048125 5.1931875 45.72525 8.154375 15.0496875 8.4639375 12.5120625 9.23325 10.438875 11.446875 8.72325 11.111625 8.8295625 9.417375 9.08925 7.5774375 10.1915625L7.5076875 10.2088125C7.2954375 10.338375 7.0845 10.4878125 6.8919375 10.64025 3.51675 13.0633125 3.4633125 16.2110625 3.1725 18.5371875 3.1483125 18.74925.001125 46.6745625.001125 47.60175-.0285 49.7775 1.3063125 53.0623125 5.361375 53.0623125L5.361375 53.0623125 10.190625 53.0623125C6.7125 53.0623125 4.7694375 50.4459375 4.8305625 47.595zM25.5901875 9.9620625L25.5901875 1.2110625C23.851125 1.09425 22.2234375.6785625 20.779125.0508125L20.7598125 5.3930625 20.7598125 5.3930625 25.5901875 9.9620625z" transform="translate(0 42.938)"/>
    <path fill="#EAB883" d="M95.961375,89.48625 C92.5505625,59.281875 92.74275,60.13425 92.4373125,58.657875 C91.94175,56.2614375 90.4970625,54.370875 88.4915625,53.146125 L88.422,53.128875 C87.5685,52.6175625 86.6169375,52.214625 85.59525,51.92025 L75.7610625,49.4720625 C75.441375,49.3273125 75.220125,48.85125 75.220125,48.3084375 L75.220125,43.5650625 C71.513625,45.1815 67.1938125,45.1558125 63.5394375,43.5403125 L63.5394375,48.308625 C63.5394375,48.8514375 63.3181875,49.3275 62.9985,49.47225 C54.6793125,51.6885 52.8290625,51.63675 50.3375625,53.1290625 L50.268,53.1463125 C47.515875,54.8270625 46.4521875,57.105 46.0854375,60.112125 L42.7981875,89.48625 C42.46875,93.294375 44.4875625,95.9998125 48.121875,95.9998125 C53.9053125,95.9998125 86.01525,95.9998125 90.637875,95.9998125 C94.6929375,95.9998125 96.02775,92.715 95.998125,90.53925 C95.998125,90.537 95.998125,90.53475 95.998125,90.5325 C96.0046875,90.1385625 95.9866875,89.7808125 95.961375,89.48625 Z"/>
    <path fill="#D8A373" d="M47.5906875,90.53925 C47.5906875,90.537 47.5906875,90.53475 47.5906875,90.5325 C47.5839375,90.1385625 47.60175,89.7808125 47.62725,89.48625 L50.9145,58.373625 C51.265875,55.492125 52.2474375,53.2156875 55.0149375,51.4595625 C54.2025,51.7055625 52.350375,51.92325 50.3375625,53.128875 L50.268,53.146125 C47.515875,54.826875 46.452,57.105 46.0854375,60.1119375 L42.7981875,89.4860625 C42.4689375,93.2941875 44.4875625,95.999625 48.121875,95.999625 C51.1111875,95.999625 49.9614375,95.999625 52.951125,95.999625 C48.8956875,95.999625 47.5610625,92.715 47.5906875,90.53925 Z"/>
    <path fill="#D83D3D" d="M94.166625,73.44975 C92.6165625,59.689875 92.6835,59.8494375 92.4373125,58.6576875 C91.9389375,56.24775 90.4783125,54.358875 88.4915625,53.1459375 C88.471875,53.1410625 88.402125,53.1238125 88.422,53.1286875 C87.5685,52.617375 86.6169375,52.2144375 85.59525,51.9200625 L75.7610625,49.471875 C75.441375,49.327125 75.220125,48.8510625 75.220125,48.30825 L75.220125,43.564875 L75.220125,43.564875 L75.220125,43.540125 C71.483625,45.190875 67.1855625,45.151125 63.5394375,43.540125 L63.5394375,43.564875 L63.5394375,43.564875 L63.5394375,48.30825 C63.5394375,48.8510625 63.3181875,49.327125 62.9985,49.471875 C54.6793125,51.688125 52.8290625,51.6361875 50.3375625,53.1286875 C50.317875,53.1335625 50.248125,53.1508125 50.268,53.1459375 C47.540625,54.8109375 46.451625,57.1093125 46.0854375,60.11175 L44.59275,73.4495625 L54.001125,74.43675 C54.501375,74.48925 54.873375,74.9236875 54.8480625,75.4261875 L53.8145625,95.999625 C65.331,95.999625 73.489875,95.999625 85.0014375,95.999625 L83.9180625,75.505875 C83.8891875,74.9593125 84.2934375,74.4856875 84.8379375,74.4285 L94.166625,73.44975 Z"/>
    <path fill="#A82626" d="M44.5925625,73.44975 L49.26975,73.9404375 L50.9145,58.3734375 C51.2656875,55.4925 52.2470625,53.2156875 55.0149375,51.459375 C53.8455,51.772875 52.143375,52.047 50.3375625,53.128875 C50.317875,53.13375 50.248125,53.151 50.268,53.146125 C48.2551875,54.3748125 46.8159375,56.27025 46.32225,58.657875 C46.0190625,60.121875 46.0764375,60.441375 44.5925625,73.44975 Z"/>
    <path fill="#70BBEF" d="M45.696375,53.146125 C45.6766875,53.14125 45.6069375,53.124 45.626625,53.128875 C43.264125,51.713625 41.24775,51.64725 36.934875,50.4601875 L36.939,50.4525 L32.459625,48.3084375 L32.4271875,48.357375 C32.427,48.351375 32.426625,48.3455625 32.42625,48.33975 L26.5843125,53.8400625 L20.7594375,48.3305625 L16.2991875,50.4526875 L16.2991875,50.4526875 C11.94675,51.65025 9.9388125,51.7141875 7.576875,53.1290625 L7.507125,53.1463125 C4.7548125,54.826875 3.6913125,57.10575 3.3245625,60.112125 L1.8315,73.4535 L11.059875,74.42175 C11.6416875,74.482875 12.07425,74.9881875 12.045,75.5724375 L11.019375,95.9998125 C20.500875,95.9998125 32.1515625,95.9998125 42.20625,95.9998125 L41.122875,75.5085 C41.0938125,74.9604375 41.4991875,74.4856875 42.0451875,74.4283125 L44.5119375,74.1695625 C46.3205625,59.16525 45.791625,57.8184375 47.98275,55.136625 C47.5021875,54.5480625 46.220625,53.4661875 45.696375,53.146125 Z"/>
    <path fill="#4CAEE5" d="M8.154375,57.9871875 C8.4639375,55.4495625 9.23325,53.376375 11.446875,51.66075 C11.0083125,51.78525 9.359625,52.0614375 7.5774375,53.1290625 L7.5076875,53.1463125 C6.854625,53.545125 5.88225,54.327375 5.2215,55.1364375 C2.883375,57.9988125 3.5191875,60.256125 1.8320625,73.4536875 L6.60525,73.9545 C6.591,74.106375 6.7966875,72.0508125 8.154375,57.9871875 Z"/>
    <path fill="#EAB883" d="M79.6993125,50.4525 L75.760875,49.4720625 C75.4411875,49.3273125 75.2199375,48.85125 75.2199375,48.3084375 L75.2199375,42.9855 L75.2199375,42.9855 L75.2199375,42.96075 C71.4523125,44.625375 67.149,44.555625 63.53925,42.96075 L63.53925,42.9855 L63.53925,42.9855 L63.53925,48.3084375 C63.53925,48.85125 63.318,49.3273125 62.9983125,49.4720625 L59.000625,50.4673125 C63.8053125,58.5481875 74.898375,58.551375 79.6993125,50.4525 Z"/>
    <path fill="#4C4846" d="M8.2760625,23.3435625 L8.2760625,18.3084375 C8.2760625,3.4876875 25.0310625,-5.0870625 37.051875,3.2870625 C46.480875,9.870375 44.685,19.551375 44.892375,23.3435625"/>
    <path fill="#4C4846" d="M8.2760625,23.3435625 L8.2760625,18.3084375 C8.2760625,3.4876875 25.0310625,-5.0870625 37.051875,3.2870625 C46.480875,9.870375 44.685,19.551375 44.892375,23.3435625"/>
    <path fill="#3F3B39" d="M28.409625,0.0915 C17.76225,-0.965625 8.2760625,7.359 8.2760625,18.3084375 L8.2760625,23.3435625 L11.926875,23.3435625 L11.926875,18.3084375 C11.926875,8.8959375 19.0738125,1.0190625 28.409625,0.0915 Z"/>
    <path fill="#DD9A5E" d="M38.491125 3.9808125C38.491125 6.09075 36.4486875 7.8009375 33.92925 7.8009375L33.92925.160875C36.4486875.160875 38.491125 1.8710625 38.491125 3.9808125zM.0523125 3.9808125C.0523125 6.09075 2.09475 7.8009375 4.614375 7.8009375L4.614375.160875C2.09475.160875.0523125 1.8710625.0523125 3.9808125z" transform="translate(7.313 21)"/>
    <path fill="#D38D54" d="M33.92925 2.11725L33.92925 5.5509375C36.4486875 5.5509375 38.491125 3.84075 38.491125 1.7308125 38.491125 1.1131875 38.3150625.53025 38.0041875.0140625 37.25325 1.2613125 35.7110625 2.11725 33.92925 2.11725zM.53925.0140625C-.9744375 2.5280625 1.1971875 5.5509375 4.614375 5.5509375L4.614375 2.11725C2.832375 2.11725 1.2901875 1.2613125.53925.0140625z" transform="translate(7.313 23.25)"/>
    <path fill="#EDAE6B" d="M37.8646875,15.853125 C37.8114375,14.389125 36.6058125,13.587 35.44275,13.768125 C35.170875,13.8103125 34.8706875,13.854375 34.6783125,13.8815625 C28.8995625,14.701875 23.406,14.650125 17.7264375,13.768125 C16.5721875,13.5883125 15.357,14.3775 15.3045,15.8533125 C15.2251875,18.0283125 14.3210625,19.6455 12.9435,20.65275 C12.3695625,21.07275 11.9461875,21.216375 11.926875,21.2270625 C11.926875,30.7149375 11.813625,31.3490625 12.3219375,33.498375 C12.8086875,35.550375 13.7086875,37.3846875 14.886,38.9409375 C21.7059375,47.96025 35.984625,46.1994375 40.218375,35.500875 C41.61975,31.9606875 41.242125,29.2730625 41.242125,21.2270625 C41.187375,21.1861875 38.0161875,20.0615625 37.8646875,15.853125 Z"/>
    <path fill="#DD9A5E" d="M17.3015625,35.9199375 C16.2665625,32.2306875 16.840875,29.977125 16.6790625,22.9845 C16.6790625,22.2645 17.0405625,21.6526875 17.48175,21.3399375 C19.2219375,20.1020625 20.011875,18.078 20.0611875,15.9174375 C20.07825,15.1905 20.41875,14.5665 20.92125,14.1751875 C20.22375,14.1054375 19.5466875,14.025 18.921,13.941 C18.556875,13.89225 18.1411875,13.832625 17.7264375,13.768125 C16.575375,13.588875 15.357375,14.37525 15.3045,15.8533125 C15.225,18.0245625 14.3225625,19.644375 12.9435,20.65275 C12.369375,21.0729375 11.9461875,21.216375 11.926875,21.2270625 C11.926875,30.772875 11.92125,30.27975 11.9405625,30.749625 C12.236625,37.4465625 17.015625,42.892875 22.980375,44.3158125 C22.702875,44.108625 18.4648125,40.0711875 17.3015625,35.9199375 Z"/>
    <path fill="#4CAEE5" d="M28.0333125,64.3678125 L28.0333125,52.476 L26.5845,53.8400625 L25.1356875,52.469625 L25.1356875,64.3678125 C25.1356875,65.1680625 25.78425,65.816625 26.5845,65.816625 C27.38475,65.816625 28.0333125,65.1680625 28.0333125,64.3678125 Z"/>
    <path fill="#DADADA" d="M32.4598125,48.3084375 L26.5845,53.8400625 L29.7560625,57.0361875 C30.3616875,57.6465 31.365375,57.5870625 31.894875,56.9094375 L36.9391875,50.4525 L32.4598125,48.3084375 Z"/>
    <g fill="#CECCCA" transform="translate(26.438 48.188)">
      <polygon points="8.278 1.201 6.022 .121 .147 5.653 2.246 7.768"/>
      <path d="M3.75,9.1453125 C4.0153125,9.2638125 4.307625,9.2975625 4.5875625,9.2469375 L3.75,9.1453125 Z"/>
    </g>
    <path fill="#DADADA" d="M20.7598125,48.3305625 L26.5846875,53.8400625 L23.413125,57.0361875 C22.8075,57.6465 21.8038125,57.5870625 21.2743125,56.9094375 L16.23,50.4525 L20.7598125,48.3305625 Z"/>
    <polygon fill="#CECCCA" points="22.478 53.819 24.486 55.955 26.584 53.84 20.76 48.331 18.372 49.449"/>
    <path fill="#D8A373" d="M68.392875,51.259875 L68.392875,44.1470625 C66.6601875,44.028375 65.0169375,43.6134375 63.53925,42.9605625 C63.3924375,47.1841875 63.9219375,49.0535625 62.9983125,49.4720625 L59.000625,50.4673125 C59.995875,52.141125 61.341375,53.5561875 62.927625,54.597375 L67.0779375,53.0713125 C67.0783125,53.071125 68.392875,52.418625 68.392875,51.259875 Z"/>
    <path fill="#F7CF9C" d="M82.5909375,25.31325 C83.41575,25.351875 84.065625,26.0308125 84.065625,26.8565625 L84.065625,27.964875 L84.065625,27.964875 L84.065625,27.964875 C84.0616875,29.9330625 84.19875,31.84425 83.443125,34.348125 C82.6820625,36.8720625 81.2480625,39.190875 79.0929375,41.1080625 C70.0003125,49.2054375 55.38975,43.09275 54.7708125,30.85725 C54.768,30.8019375 54.7700625,30.873 54.7625625,30.6856875 C54.7550625,30.493875 54.7501875,30.3016875 54.7501875,30.108 C54.7501875,28.362375 54.7501875,24.378375 54.7501875,22.672875 L54.7501875,22.672875 L54.7501875,21.930375 C54.7501875,21.067875 55.357875,20.3304375 56.201625,20.1519375 C57.698625,19.8354375 60.1175625,18.975375 62.311875,16.639875 C62.8633125,16.053 63.804,16.0835625 64.316625,16.7045625 C66.445875,19.2845625 72.1955625,24.8274375 82.5909375,25.31325 Z"/>
    <path fill="#EAB883" d="M61.0955625,36.6080625 C59.16,32.6968125 59.6094375,29.92425 59.5794375,24.487875 C59.5794375,22.60125 59.5794375,20.7196875 59.5794375,18.8296875 C58.2898125,19.58625 57.0849375,19.965375 56.201625,20.152125 C55.3576875,20.330625 54.7501875,21.0680625 54.7501875,21.9305625 C54.7501875,23.8209375 54.7501875,28.01925 54.7501875,30.108 C54.7501875,30.35025 54.7629375,30.7275 54.763875,30.7498125 C54.764625,30.7693125 54.7845,31.1071875 54.798,31.27725 C55.4743125,39.88125 63.40725,45.9579375 71.8224375,44.5635 C67.19625,43.7968125 63.1974375,40.8418125 61.0955625,36.6080625 Z"/>
    <g fill="#B72C2C" transform="translate(56.063 50.438)">
      <path d="M26.4624375,0.7185 L23.6368125,0.0151875 C21.4730625,3.6654375 17.6461875,6.0931875 13.2830625,6.0931875 C13.2830625,6.093 26.5209375,19.332375 26.4624375,0.7185 Z"/>
      <path d="M0.1659375,0.7185 L2.9915625,0.0151875 C5.1553125,3.6654375 8.9821875,6.0931875 13.3453125,6.0931875 C13.3453125,6.093 0.1074375,19.332375 0.1659375,0.7185 Z"/>
    </g>
    <g fill="#A82626" transform="translate(56.25 54.188)">
      <path d="M6.8608125,0.4891875 C4.525125,1.7326875 1.8335625,2.326125 0.1096875,0.019875 C1.48125,14.0203125 13.1578125,2.343 13.1578125,2.343 C10.854,2.343 8.6998125,1.6655625 6.8608125,0.4891875 Z"/>
      <path d="M19.3925625,0.4891875 C21.72825,1.7326875 24.4198125,2.326125 26.1436875,0.019875 C24.772125,14.0203125 13.0955625,2.343 13.0955625,2.343 C15.3995625,2.343 17.5535625,1.6655625 19.3925625,0.4891875 Z"/>
    </g>
    <path fill="#996123" d="M58.0149375,51.99 C52.462125,44.989875 41.738625,45.7494375 37.1263125,53.211 C34.42725,57.5715 35.4455625,61.5444375 35.221875,62.76 L60.7771875,62.76 C60.6961875,60.263625 61.3845,56.2340625 58.0149375,51.99 Z"/>
    <path fill="#8E551C" d="M38.6885625,56.9701875 C38.74575,56.728125 38.88075,56.249625 38.88675,56.2295625 C40.311,51.505875 44.43075,47.8719375 49.5605625,47.246625 C44.482125,46.6276875 39.6901875,49.0605 37.126125,53.211 C34.4270625,57.5715 35.4455625,61.5436875 35.2216875,62.76 L38.3439375,62.76 C38.3475,60.0943125 38.2449375,58.8508125 38.6885625,56.9701875 Z"/>
    <path fill="#996123" d="M64.5811875,73.455 C63.458625,69.9721875 62.0030625,67.798125 60.8934375,66.6645 C60.2529375,67.295625 59.36475,67.7443125 58.354125,67.905375 C60.20775,70.5781875 59.801625,73.24575 59.7091875,74.8329375 C59.667,75.5570625 60.31875,76.1255625 61.0288125,75.9781875 L63.3946875,75.4875 C64.315125,75.296625 64.8695625,74.349375 64.5811875,73.455 Z"/>
    <path fill="#EFD0A3" d="M62.138625,64.461 C62.138625,66.5068125 60.1584375,68.1646875 57.7156875,68.1646875 L57.7156875,60.7576875 C60.1584375,60.7576875 62.138625,62.4155625 62.138625,64.461 Z"/>
    <path fill="#8E551C" d="M31.4176875,73.455 C32.54025,69.9721875 33.9958125,67.798125 35.1054375,66.6645 C35.7459375,67.295625 36.634125,67.7443125 37.64475,67.905375 C35.791125,70.5781875 36.19725,73.24575 36.2896875,74.8329375 C36.331875,75.5570625 35.680125,76.1255625 34.969875,75.9781875 L32.604,75.4875 C31.6839375,75.296625 31.1295,74.349375 31.4176875,73.455 Z"/>
    <path fill="#EFD0A3" d="M33.8604375,64.461 C33.8604375,66.5068125 35.840625,68.1646875 38.283375,68.1646875 L38.283375,60.7576875 C35.840625,60.7576875 33.8604375,62.4155625 33.8604375,64.461 Z"/>
    <path fill="#E2BF91" d="M23.9655 2.179875L23.9655 5.352375C27.2431875 5.352375 29.3390625 2.489625 27.9628125.0624375 27.2533125 1.3141875 25.7304375 2.179875 23.9655 2.179875zM.5360625.0624375C-.842625 2.4939375 1.264875 5.352375 4.533375 5.352375L4.533375 2.179875C2.768625 2.179875 1.24575 1.3141875.5360625.0624375z" transform="translate(33.75 62.813)"/>
    <path fill="#EFD0A3" d="M64.4295,95.9998125 L63.421875,86.995125 C63.192,85.1094375 62.5288125,83.525625 60.6493125,82.37775 L60.6031875,82.3663125 C58.9584375,81.381 57.765,81.4220625 52.2106875,79.9423125 C51.596625,79.66425 51.9530625,78.472875 51.8521875,75.4471875 C49.370625,76.5331875 46.498125,76.488 44.1095625,75.4306875 C44.0113125,78.3860625 44.3675625,79.6629375 43.7510625,79.9423125 C38.2074375,81.41925 37.005375,81.379875 35.35875,82.3663125 L35.312625,82.37775 C33.98775,83.187 33.026625,84.4374375 32.6971875,86.0311875 C32.5006875,86.9814375 32.5520625,87.0585 31.5324375,95.9998125 L64.4295,95.9998125 L64.4295,95.9998125 Z"/>
    <path fill="#F9B938" d="M31.5320625,95.9998125 C39.5098125,95.9998125 56.4465,95.9998125 64.4293125,95.9998125 L63.4216875,86.995125 C63.1921875,85.1116875 62.5261875,83.52375 60.649125,82.37775 L60.603,82.3663125 C58.9723125,81.3894375 57.65775,81.387 53.2545,80.2021875 C53.2545,80.243625 53.2545,81.3871875 53.2545,81.3673125 C53.2545,82.2020625 53.058375,82.9970625 52.7109375,83.69775 C52.6535625,83.8138125 52.560375,83.985375 52.4713125,84.129 C52.4671875,84.1355625 52.409625,84.2263125 52.4053125,84.232875 C52.31325,84.3740625 52.2148125,84.5098125 52.1184375,84.631125 C52.072875,84.6885 52.0111875,84.76275 51.962625,84.8175 C51.95475,84.8263125 51.9470625,84.835125 51.9391875,84.8439375 C51.90825,84.879375 51.8769375,84.91425 51.844875,84.94875 C51.8415,84.9523125 51.8379375,84.9560625 51.8345625,84.9598125 C51.8338125,84.9605625 51.83325,84.961125 51.8326875,84.961875 C51.8278125,84.967125 51.8229375,84.9721875 51.8180625,84.9774375 C51.7809375,85.016625 51.7430625,85.054875 51.7048125,85.09275 C51.69225,85.1053125 51.679875,85.11825 51.6673125,85.130625 C51.6178125,85.1788125 51.567375,85.2260625 51.5161875,85.272375 C51.5015625,85.2855 51.486375,85.2980625 51.47175,85.3111875 C51.4396875,85.339875 51.4063125,85.3670625 51.373875,85.395375 C51.3688125,85.399875 51.36375,85.4041875 51.3586875,85.4085 C51.339,85.4248125 51.3189375,85.44075 51.298875,85.456875 C51.2645625,85.4844375 51.23025,85.512 51.195375,85.538625 C51.1734375,85.5555 51.151125,85.572 51.1288125,85.5886875 C51.0946875,85.614 51.060375,85.6389375 51.0256875,85.6635 C51.008625,85.6755 50.991375,85.6875 50.974125,85.6993125 C50.9683125,85.70325 50.9626875,85.707375 50.956875,85.7113125 C50.9210625,85.7356875 50.8846875,85.7596875 50.848125,85.7833125 C50.8425,85.786875 50.8370625,85.7904375 50.8314375,85.794 C50.81475,85.804875 50.7980625,85.81575 50.7811875,85.82625 C50.75025,85.8455625 50.7189375,85.864125 50.6874375,85.8826875 C50.6769375,85.888875 50.666625,85.8954375 50.656125,85.9014375 C50.651625,85.9040625 50.6469375,85.906875 50.6424375,85.9095 C50.62875,85.91775 50.61525,85.926 50.601375,85.933875 C50.541,85.968375 50.479875,86.00175 50.418,86.0338125 C50.4095625,86.038125 50.401125,86.04225 50.3925,86.046375 C50.3896875,86.0476875 50.386875,86.0491875 50.3840625,86.0506875 C50.37375,86.0559375 50.3634375,86.0608125 50.353125,86.065875 C50.3120625,86.0865 50.271,86.107125 50.229375,86.1268125 C50.206875,86.1373125 50.1841875,86.14725 50.1616875,86.157375 C50.1200625,86.176125 50.07825,86.1946875 50.0360625,86.2125 C50.0105625,86.2231875 49.984875,86.2335 49.9591875,86.2438125 C49.918875,86.260125 49.878375,86.275875 49.8376875,86.2910625 C49.81125,86.301 49.784625,86.31075 49.758,86.320125 C49.7165625,86.3349375 49.67475,86.349 49.63275,86.3626875 C49.6119375,86.3694375 49.591125,86.3761875 49.5703125,86.3829375 C49.5650625,86.384625 49.56,86.3863125 49.55475,86.388 C49.543125,86.3915625 49.531125,86.39475 49.5195,86.3983125 C49.4851875,86.408625 49.450875,86.41875 49.416375,86.4283125 C49.3995,86.433 49.3828125,86.437875 49.36575,86.4425625 C49.360125,86.4440625 49.3545,86.44575 49.348875,86.44725 C49.279875,86.465625 49.2103125,86.4826875 49.1401875,86.49825 C49.129875,86.5005 49.119375,86.5025625 49.1090625,86.5048125 C49.0779375,86.5115625 49.047,86.518125 49.0156875,86.5243125 C48.9324375,86.540625 48.8484375,86.554875 48.7636875,86.56725 C48.594375,86.592 48.4224375,86.6085 48.24825,86.6165625 C48.2274375,86.6176875 48.2068125,86.6180625 48.1861875,86.618625 C48.175125,86.619 48.163875,86.619375 48.152625,86.61975 C48.12225,86.6206875 48.0920625,86.62125 48.061875,86.621625 C48.0534375,86.621625 48.045,86.621625 48.03675,86.6218125 C48.0346875,86.6218125 48.032625,86.6218125 48.0305625,86.6218125 C48.0200625,86.6218125 48.0095625,86.622 47.9990625,86.622 C47.9885625,86.622 47.9780625,86.6218125 47.9675625,86.6218125 C47.9655,86.6218125 47.9634375,86.6218125 47.9611875,86.6218125 C47.95275,86.6218125 47.9445,86.6218125 47.9360625,86.621625 C47.905875,86.62125 47.8756875,86.6206875 47.8453125,86.61975 C47.8340625,86.619375 47.823,86.619 47.81175,86.618625 C47.791125,86.617875 47.7703125,86.6175 47.7496875,86.6165625 C47.5755,86.6085 47.4035625,86.5918125 47.23425,86.56725 C47.1495,86.554875 47.0655,86.540625 46.98225,86.5243125 C46.9509375,86.518125 46.92,86.5115625 46.888875,86.5048125 C46.8785625,86.5025625 46.8680625,86.5006875 46.85775,86.49825 C46.787625,86.4826875 46.7180625,86.4654375 46.6490625,86.44725 C46.6434375,86.44575 46.6378125,86.4440625 46.6321875,86.4425625 C46.6153125,86.437875 46.5984375,86.433 46.5815625,86.4283125 C46.5474375,86.41875 46.5135,86.4088125 46.4795625,86.3986875 C46.4675625,86.3949375 46.4551875,86.39175 46.4431875,86.388 C46.4379375,86.3863125 46.432875,86.384625 46.427625,86.3829375 C46.4068125,86.376375 46.386,86.369625 46.3651875,86.3626875 C46.3231875,86.349 46.2815625,86.3349375 46.2399375,86.320125 C46.2133125,86.31075 46.1866875,86.301 46.16025,86.2910625 C46.1195625,86.275875 46.078875,86.260125 46.03875,86.2438125 C46.0130625,86.2335 45.987375,86.2231875 45.961875,86.2125 C45.9196875,86.1946875 45.877875,86.176125 45.83625,86.157375 C45.81375,86.14725 45.790875,86.1373125 45.7685625,86.1268125 C45.7269375,86.1073125 45.685875,86.0866875 45.6448125,86.065875 C45.6345,86.0608125 45.6241875,86.0559375 45.613875,86.0506875 C45.6110625,86.0491875 45.60825,86.047875 45.6054375,86.046375 C45.597,86.04225 45.588375,86.038125 45.5799375,86.0338125 C45.5180625,86.00175 45.4569375,85.968375 45.3965625,85.933875 C45.382875,85.926 45.3691875,85.91775 45.3555,85.9095 C45.351,85.906875 45.3463125,85.9040625 45.3418125,85.9014375 C45.3313125,85.89525 45.321,85.888875 45.3106875,85.8826875 C45.2791875,85.864125 45.247875,85.8455625 45.2169375,85.82625 C45.2000625,85.81575 45.183375,85.804875 45.1666875,85.794 C45.1610625,85.7904375 45.1554375,85.786875 45.15,85.7833125 C44.0998125,85.104375 43.32525,84.076875 42.96675,82.88775 C42.646125,81.8248125 42.77175,81.0676875 42.743625,80.1931875 L41.628,80.470875 C38.1285,81.426 36.919875,81.4306875 35.357625,82.3665 L35.3115,82.3779375 C34.0035,83.176875 33.027375,84.42975 32.6960625,86.031375 C32.4999375,86.9791875 32.5389375,87.1644375 31.5320625,95.9998125 Z"/>
    <path fill="#EAA224" d="M3.6440625 9.51C4.0468125 5.87775 3.763875 2.830125 6.81975.8683125L6.865875.8563125C7.2046875.6429375 7.569375.4599375 7.9509375.30075 8.020875.245625 8.08875.1951875 8.154.149625 6.6080625.5911875 5.324625.675375 3.8585625 1.553625L3.8124375 1.5650625C2.4774375 2.3803125 1.51725 3.637875 1.1896875 5.2580625.9961875 6.21075 1.04025 6.34275.03225 15.187125L3.03975 15.187125 3.6440625 9.51zM8.4823125 15.1873125L8.6169375 10.9948125C8.642625 10.1949375 8.01525 9.5259375 7.215375 9.50025 6.4155 9.4689375 5.7465 10.10175 5.7208125 10.901625L5.5831875 15.1873125 8.4823125 15.1873125zM27.4156875 15.1873125L27.2780625 10.901625C27.252375 10.102125 26.5895625 9.471375 25.7835 9.50025 24.9838125 9.5259375 24.35625 10.1949375 24.3819375 10.9948125L24.5165625 15.1873125 27.4156875 15.1873125 27.4156875 15.1873125z" transform="translate(31.5 80.813)"/>
    <path fill="#E2BF91" d="M46.7986875,82.992 C46.822875,82.9561875 47.9315625,82.6280625 47.9829375,81.223875 L47.9829375,76.242375 C46.5705,76.2350625 45.2625,75.94125 44.1095625,75.430875 C44.0113125,78.3871875 44.3675625,79.663125 43.7510625,79.9425 L42.7445625,80.193 C42.7726875,81.066 42.6470625,81.8225625 42.9676875,82.8875625 C43.104375,83.3405625 43.32,83.80125 43.5328125,84.136875 L46.7986875,82.992 L46.7986875,82.992 Z"/>
    <path fill="#FCE3BB" d="M47.3300625,57.532875 C45.149625,61.159875 40.521,60.601875 38.8775625,60.2698125 C38.5700625,60.20775 38.2835625,60.444 38.2835625,60.7576875 L38.2835625,60.7576875 C38.2835625,66.6594375 38.103375,67.957125 38.69625,69.9174375 C39.8990625,73.9059375 43.581375,76.7735625 47.883375,76.821375 C53.2453125,76.8883125 57.7156875,72.5716875 57.7156875,67.107 C57.7156875,64.6365 57.7156875,62.896875 57.7156875,60.757875 L57.7156875,60.757875 C57.7156875,60.4441875 57.429,60.2079375 57.1216875,60.27 C55.47825,60.6020625 50.849625,61.159875 48.6691875,57.5330625 C48.3650625,57.027375 47.634,57.027375 47.3300625,57.532875 Z"/>
    <path fill="#EFD0A3" d="M43.2560625,68.7785625 C43.0025625,67.3160625 43.1653125,66.7513125 43.1128125,60.346875 C41.403,60.676125 39.7344375,60.442875 38.8775625,60.2698125 C38.5700625,60.20775 38.2835625,60.444 38.2835625,60.7576875 C38.2835625,66.7490625 38.1069375,67.9685625 38.69625,69.9174375 C40.1593125,74.7691875 45.247125,77.84775 50.41425,76.5185625 C46.7439375,75.5750625 43.9138125,72.5626875 43.2560625,68.7785625 Z"/>
  </g>
</svg>
