<svg xmlns="http://www.w3.org/2000/svg" width="28" height="24" viewBox="0 0 28 24">
  <path fill="currentColor" d="M312,16.0001406 C312.552285,16.0001406 313,16.4478559 313,17.0001406 L313,19.0001406 L325,19.0001406 L325,21.0001406 L313,21.0001406 L313,23.0001406 C313,23.5524254 312.552285,24.0001406 312,24.0001406 L310,24.0001406 C309.447715,24.0001406 309,23.5524254 309,23.0001406 L309,21.0001406 L297,21.0001406 L297,19.0001406 L309,19.0001406 L309,17.0001406 C309,16.4478559 309.447715,16.0001406 310,16.0001406 L312,16.0001406 Z M319,8.00014063 C319.552285,8.00014063 320,8.44785588 320,9.00014063 L320,11.0001406 L325,11.0001406 L325,13.0001406 L320,13.0001406 L320,15.0001406 C320,15.5524254 319.552285,16.0001406 319,16.0001406 L317,16.0001406 C316.447715,16.0001406 316,15.5524254 316,15.0001406 L316,13.0001406 L297,13.0001406 L297,11.0001406 L316,11.0001406 L316,9.00014063 C316,8.44785588 316.447715,8.00014063 317,8.00014063 L319,8.00014063 Z M305,0.000140625 C305.552285,0.000140625 306,0.447855875 306,1.00014063 L306,3.00014063 L325,3.00014063 L325,5.00014063 L306,5.00014063 L306,7.00014063 C306,7.55242537 305.552285,8.00014063 305,8.00014063 L303,8.00014063 C302.447715,8.00014063 302,7.55242537 302,7.00014063 L302,5.00014063 L297,5.00014063 L297,3.00014063 L302,3.00014063 L302,1.00014063 C302,0.447855875 302.447715,0.000140625 303,0.000140625 L305,0.000140625 Z" transform="translate(-297)"/>
</svg>