<svg xmlns="http://www.w3.org/2000/svg" width="76" height="92" viewBox="0 0 76 92">
  <g fill="none">
    <path fill="#FA7300" d="M37.8,92 C22.3784,92 -2.0624,34.8 0.3264,18.664 C2.7152,2.528 32.6944,0 37.8,0 C42.9056,0 72.884,2.536 75.2736,18.664 C77.6632,34.792 53.2216,92 37.8,92 Z"/>
    <path fill="#DB6500" d="M60.0472,56.2000073 C59.8542604,56.2000073 59.663503,56.1591772 59.4872,56.0808 C59.1468303,55.9317105 58.8796945,55.6534216 58.7446438,55.3072417 C58.6095931,54.9610617 58.6177077,54.5753931 58.7672,54.2352 C62.3654212,46.256022 65.2305535,37.9661499 67.3272,29.468 C67.4323037,28.9749718 67.794353,28.5765181 68.2750876,28.4248017 C68.7558222,28.2730853 69.2810028,28.3915355 69.6500717,28.7349182 C70.0191407,29.0783009 70.1751033,29.593588 70.0584,30.084 C67.922757,38.7578076 65.0024556,47.2193448 61.3336,55.364 C61.109081,55.8735839 60.6040494,56.2017916 60.0472,56.2000073 L60.0472,56.2000073 Z"/>
    <circle cx="37.8" cy="31.8" r="17.2" fill="#FCD248"/>
  </g>
</svg>
