<svg xmlns="http://www.w3.org/2000/svg" width="32" height="32" viewBox="0 0 32 32">
  <path fill="currentColor" d="M30.8871774,13.7927419 C30.8862097,13.7920161 30.8854839,13.7910484 30.884758,13.7903226 L17.9491936,0.855241951 C17.3978226,0.303629048 16.664758,0 15.885,0 C15.105242,0 14.3721774,0.303629048 13.8205645,0.855241951 L0.891774225,13.7837903 C0.887419355,13.7881452 0.882822565,13.7927419 0.878709677,13.7970968 C-0.253548387,14.9358871 -0.251612903,16.7835484 0.884274209,17.9194355 C1.40322581,18.438629 2.0883871,18.7391129 2.82120966,18.7708064 C2.85120966,18.7737097 2.88120966,18.7751613 2.91145158,18.7751613 L3.42677419,18.7751613 L3.42677419,28.2943549 C3.42677419,30.1783064 4.95967742,31.7109677 6.84362905,31.7109677 L11.9044355,31.7109677 C12.4175807,31.7109677 12.8334677,31.2948387 12.8334677,30.7819355 L12.8334677,23.3187097 C12.8334677,22.4591129 13.5329032,21.7599193 14.3925,21.7599193 L17.3775,21.7599193 C18.2370968,21.7599193 18.9362904,22.4591129 18.9362904,23.3187097 L18.9362904,30.7819355 C18.9362904,31.2948387 19.3521774,31.7109677 19.8653226,31.7109677 L24.926129,31.7109677 C26.8103226,31.7109677 28.3429839,30.1783064 28.3429839,28.2943549 L28.3429839,18.7751613 L28.8210484,18.7751613 C29.6005645,18.7751613 30.333629,18.4715322 30.8854839,17.9196774 C32.0225806,16.7820968 32.0230645,14.9310484 30.8871774,13.7927419 L30.8871774,13.7927419 Z M29.5715322,16.6059678 C29.3709677,16.8065323 29.1043548,16.9170968 28.8210484,16.9170968 L27.4139516,16.9170968 C26.9008065,16.9170968 26.4849194,17.3329839 26.4849194,17.846129 L26.4849194,28.2943549 C26.4849194,29.1537097 25.7857258,29.8529032 24.926129,29.8529032 L20.7943549,29.8529032 L20.7943549,23.3187097 C20.7943549,21.434758 19.2616936,19.9018548 17.3775,19.9018548 L14.3925,19.9018548 C12.5083064,19.9018548 10.9754032,21.434758 10.9754032,23.3187097 L10.9754032,29.8529032 L6.84362905,29.8529032 C5.98427421,29.8529032 5.28483871,29.1537097 5.28483871,28.2943549 L5.28483871,17.846129 C5.28483871,17.3329839 4.8689516,16.9170968 4.35580645,16.9170968 L2.97290323,16.9170968 C2.9583871,16.916129 2.94411289,16.9154032 2.92935484,16.9151613 C2.65258065,16.9103226 2.39298389,16.8004838 2.19846776,16.6057258 C1.78475805,16.1920161 1.78475805,15.5187097 2.19846776,15.104758 C2.19870968,15.104758 2.19870968,15.1045161 2.1989516,15.1042742 L2.19967742,15.1035484 L15.134758,2.1689516 C15.3350806,1.9683871 15.6014516,1.85806452 15.885,1.85806452 C16.1683064,1.85806452 16.4346774,1.9683871 16.635242,2.1689516 L29.5674194,15.1008871 C29.5693548,15.1028226 29.5715322,15.104758 29.5734677,15.1066935 C29.985,15.521129 29.9842742,16.1929839 29.5715322,16.6059678 Z M29.5715322,16.6059678 C29.3709677,16.8065323 29.1043548,16.9170968 28.8210484,16.9170968 L27.4139516,16.9170968 C26.9008065,16.9170968 26.4849194,17.3329839 26.4849194,17.846129 L26.4849194,28.2943549 C26.4849194,29.1537097 25.7857258,29.8529032 24.926129,29.8529032 L20.7943549,29.8529032 L20.7943549,23.3187097 C20.7943549,21.434758 19.2616936,19.9018548 17.3775,19.9018548 L14.3925,19.9018548 C12.5083064,19.9018548 10.9754032,21.434758 10.9754032,23.3187097 L10.9754032,29.8529032 L6.84362905,29.8529032 C5.98427421,29.8529032 5.28483871,29.1537097 5.28483871,28.2943549 L5.28483871,17.846129 C5.28483871,17.3329839 4.8689516,16.9170968 4.35580645,16.9170968 L2.97290323,16.9170968 C2.9583871,16.916129 2.94411289,16.9154032 2.92935484,16.9151613 C2.65258065,16.9103226 2.39298389,16.8004838 2.19846776,16.6057258 C1.78475805,16.1920161 1.78475805,15.5187097 2.19846776,15.104758 C2.19870968,15.104758 2.19870968,15.1045161 2.1989516,15.1042742 L2.19967742,15.1035484 L15.134758,2.1689516 C15.3350806,1.9683871 15.6014516,1.85806452 15.885,1.85806452 C16.1683064,1.85806452 16.4346774,1.9683871 16.635242,2.1689516 L29.5674194,15.1008871 C29.5693548,15.1028226 29.5715322,15.104758 29.5734677,15.1066935 C29.985,15.521129 29.9842742,16.1929839 29.5715322,16.6059678 Z"/>
</svg>
