<svg xmlns="http://www.w3.org/2000/svg" width="35" height="32" viewBox="0 0 35 32">
  <g fill="none">
    <path fill="#3E2723" d="M17.0666667,-1.89478063e-15 C7.6416,-1.89478063e-15 0,5.98471111 0,13.3674667 C0,18.1404444 3.19431111,22.3288889 8,24.6926222 C5.61351111,32.8689778 4.2112,33.4008889 14.0359111,26.5230222 C15.0200889,26.6609778 16.0327111,26.7335111 17.0666667,26.7335111 C26.4917333,26.7335111 34.1333333,20.7488 34.1333333,13.3660444 C34.1333333,5.98471111 26.4917333,-1.89478063e-15 17.0666667,-1.89478063e-15 Z"/>
    <path fill="#FFEB3B" d="M10.6572444 1.00622222C10.2064-.263822222 8.48266667-.265244444 8.03324444 1.0048 6.63377778 5.34542222 4.75928889 8.02346667 5.91128889 8.55111111 7.44444444 9.24657778 7.47715556 7.68213333 7.84408889 6.98666667L10.8464 6.98666667C11.2119111 7.67928889 11.2474667 9.24515556 12.7792 8.55111111 13.9354667 8.02346667 12.0837333 5.42933333 10.6572444 1.00622222zM8.36177778 5.2544L9.34595556 2.47964444 10.3287111 5.2544 8.36177778 5.2544zM3.51911111 8.70044444C1.81528889 8.70044444 2.82222222 6.34382222 2.53493333 1.95626667 1.9248 1.85102222.0318222222 2.37866667.0318222222.999111111.0318222222.471466667.4656.0419555556.997511111.0419555556 4.57866667.297955556 7.00497778-.626488889 7.00497778.999111111 7.00497778 2.40284444 5.19164444 1.83822222 4.50186667 1.95626667 4.21742222 6.3296 5.22008889 8.70044444 3.51911111 8.70044444L3.51911111 8.70044444zM14.5968 8.5568C12.9484444 8.5568 13.9511111 6.33102222 13.6538667 1.0176 13.6538667-.276622222 15.6634667-.2752 15.6634667 1.0176L15.6634667 6.76337778C16.6149333 6.88995556 18.6999111 6.29404444 18.6999111 7.65937778 18.6984889 9.09155556 16.4584889 8.37475556 14.5968 8.5568L14.5968 8.5568zM23.7018667 8.27377778L21.3921778 5.23448889 21.0508444 5.5744 21.0508444 7.70773333C21.0508444 8.24817778 20.6099556 8.68622222 20.0652444 8.68622222 18.3543111 8.68622222 19.3797333 6.22293333 19.0810667 1.0176 19.0810667.478577778 19.5219556.0391111111 20.0652444.0391111111 21.5514667.0391111111 20.9100444 2.14115556 21.0494222 3.11964444 23.8369778.455822222 23.7701333.1728 24.3432889.1728 25.1340444.1728 25.6190222 1.15555556 25.0928 1.67751111L22.8485333 3.90613333 25.272 7.09617778C26.0627556 8.12728889 24.4826667 9.30915556 23.7018667 8.27377778L23.7018667 8.27377778z" transform="translate(4.111 9.333)"/>
  </g>
</svg>
