<svg xmlns="http://www.w3.org/2000/svg" width="85" height="85" viewBox="0 0 85 85">
  <path fill="#DADEE1" d="M298.5,7 C275.022177,7 256,26.0221774 256,49.5 C256,72.9778226 275.022177,92 298.5,92 C321.977823,92 341,72.9778226 341,49.5 C341,26.0221774 321.977823,7 298.5,7 Z M302.612903,41.171371 C303.178427,33.9566532 308.131048,28.9354839 312.209677,28.9354839 C316.288306,28.9354839 321.240927,33.9566532 321.806452,41.171371 C321.926411,42.6451613 319.955645,43.2106855 319.253024,41.9425403 L317.625,39.0292339 C316.305444,36.6814516 314.334677,35.327621 312.226815,35.327621 C310.118952,35.327621 308.148185,36.6814516 306.828629,39.0292339 L305.200605,41.9425403 C304.480847,43.2106855 302.492944,42.6451613 302.612903,41.171371 Z M275.193548,41.171371 C275.759073,33.9566532 280.711694,28.9354839 284.790323,28.9354839 C288.868952,28.9354839 293.821573,33.9566532 294.387097,41.171371 C294.507056,42.6451613 292.53629,43.2106855 291.833669,41.9425403 L290.205645,39.0292339 C288.886089,36.6814516 286.915323,35.327621 284.80746,35.327621 C282.699597,35.327621 280.728831,36.6814516 279.409274,39.0292339 L277.78125,41.9425403 C277.044355,43.2106855 275.073589,42.6280242 275.193548,41.171371 Z M324.359879,58.0685484 C322.834677,70.2358871 312.449597,79.6612903 299.870968,79.6612903 L297.129032,79.6612903 C284.550403,79.6612903 274.165323,70.2358871 272.640121,58.0685484 C272.434476,56.4405242 273.719758,54.983871 275.364919,54.983871 L321.635081,54.983871 C323.280242,54.983871 324.565524,56.4233871 324.359879,58.0685484 Z" transform="translate(-256 -7)"/>
</svg>
