<svg xmlns="http://www.w3.org/2000/svg" width="45" height="48" viewBox="0 0 45 48">
  <defs>
    <radialGradient id="lightbulb-a" cx="50%" cy="50%" r="53.333%" fx="50%" fy="50%" gradientTransform="matrix(0 .9375 -1 0 1 .031)">
      <stop offset="0%" stop-color="#FFF"/>
      <stop offset="100%" stop-color="#FF4C00"/>
    </radialGradient>
  </defs>
  <path fill="url(#lightbulb-a)" d="M15.6256548,43.3253518 C15.6264685,43.8352987 15.7778215,44.3347061 16.0618119,44.7595267 L17.4524696,46.8422828 C17.9349695,47.5654138 18.7486846,48 19.6202357,48 L24.6417388,48 C25.5132899,48 26.327005,47.5654138 26.8095048,46.8422828 L28.2001626,44.7595267 C28.4840303,44.334645 28.6357511,43.8357556 28.6363197,43.3253518 L28.6395746,40.2162162 L15.6215861,40.2162162 L15.6256548,43.3253518 Z M22.1305804,0 L24.7341781,0 L24.7341781,6.48648649 L22.1305804,6.48648649 L22.1305804,0 Z M6.20223534,5.75591574 L7.66144545,4.28141596 L12.5254792,9.19641523 L11.0662691,10.670915 L6.20223534,5.75591574 Z M39.3527307,5.75591574 L37.8935206,4.28141596 L33.0294869,9.19641523 L34.488697,10.670915 L39.3527307,5.75591574 Z M7.16669651,17.6378517 L6.7024797,19.6696642 L1.87228011e-12,18.1060612 L0.46421681,16.0742487 L7.16669651,17.6378517 Z M37.8333035,17.6378517 L38.2975203,19.6696642 L45,18.1060612 L44.5357832,16.0742487 L37.8333035,17.6378517 Z M7.73382671,26.6652811 L8.47336726,28.6120368 L2.05147061,31.1030018 L1.31193006,29.1562461 L7.73382671,26.6652811 Z M37.8211394,26.6652811 L37.0815988,28.6120368 L43.5034955,31.1030018 L44.243036,29.1562461 L37.8211394,26.6652811 Z M9.11259192,21.4591392 C9.11259192,24.9067107 10.390167,28.0520272 12.4956417,30.4553039 C13.7786532,31.9199584 15.7854945,34.9798044 16.5504862,37.5610152 C16.5535928,37.5812174 16.5559227,37.6014195 16.5590292,37.6216216 L29.0039303,37.6216216 C29.0070369,37.6014195 29.0093668,37.5819944 29.0124734,37.5610152 C29.7774651,34.9798044 31.7843064,31.9199584 33.0673179,30.4553039 C35.1727926,28.0520272 36.4503677,24.9067107 36.4503677,21.4591392 C36.4503677,13.8918869 30.3079112,7.76053988 22.7387645,7.78378378 C14.816246,7.80793719 9.11259192,14.2306611 9.11259192,21.4591392 Z M23.4323792,15.5675676 C19.8434825,15.5675676 16.923385,18.4775676 16.923385,22.0540541 C16.923385,22.7708108 16.34083,23.3513514 15.6215861,23.3513514 C14.9023423,23.3513514 14.3197873,22.7708108 14.3197873,22.0540541 C14.3197873,17.0464865 18.4074357,12.972973 23.4323792,12.972973 C24.1516231,12.972973 24.7341781,13.5535135 24.7341781,14.2702703 C24.7341781,14.987027 24.1516231,15.5675676 23.4323792,15.5675676 Z"/>
</svg>
