<svg xmlns="http://www.w3.org/2000/svg" width="26" height="26" viewBox="0 0 26 26">
  <path fill="#4A4A4A" d="M13,1 C5.82080242,1 0,6.82289919 0,14 C0,21.1812944 5.82080242,27 13,27 C20.1791976,27 26,21.1812944 26,14 C26,6.82289919 20.1791976,1 13,1 Z M13,6.76612903 C14.2159194,6.76612903 15.2016129,7.75182258 15.2016129,8.96774194 C15.2016129,10.1836613 14.2159194,11.1693548 13,11.1693548 C11.7840806,11.1693548 10.7983871,10.1836613 10.7983871,8.96774194 C10.7983871,7.75182258 11.7840806,6.76612903 13,6.76612903 Z M15.9354839,20.0806452 C15.9354839,20.4280282 15.6538347,20.7096774 15.3064516,20.7096774 L10.6935484,20.7096774 C10.3461653,20.7096774 10.0645161,20.4280282 10.0645161,20.0806452 L10.0645161,18.8225806 C10.0645161,18.4751976 10.3461653,18.1935484 10.6935484,18.1935484 L11.3225806,18.1935484 L11.3225806,14.8387097 L10.6935484,14.8387097 C10.3461653,14.8387097 10.0645161,14.5570605 10.0645161,14.2096774 L10.0645161,12.9516129 C10.0645161,12.6042298 10.3461653,12.3225806 10.6935484,12.3225806 L14.0483871,12.3225806 C14.3957702,12.3225806 14.6774194,12.6042298 14.6774194,12.9516129 L14.6774194,18.1935484 L15.3064516,18.1935484 C15.6538347,18.1935484 15.9354839,18.4751976 15.9354839,18.8225806 L15.9354839,20.0806452 Z" transform="translate(0 -1)"/>
</svg>
