<svg xmlns="http://www.w3.org/2000/svg" width="26" height="26" viewBox="0 0 26 26">
  <path fill="#4A4A4A" d="M10.3741542,0.255689986 C5.32641782,1.24086188 1.25877509,5.2983482 0.263446777,10.33085 C-1.61548932,19.8270946 6.95144363,26.9061133 13.405843,25.9057068 C15.4980638,25.5807016 16.5238613,23.1330065 15.5640804,21.2489922 C14.3910149,18.9434868 16.0668228,16.2520378 18.6567077,16.2520378 L22.7040376,16.2520378 C24.5220352,16.2520378 25.9947148,14.7488889 25.9997931,12.9359695 C25.974402,4.9327174 18.6922551,-1.36425762 10.3741542,0.255689986 Z M4.87445751,16.2520378 C3.97561511,16.2520378 3.2494317,15.5258544 3.2494317,14.627012 C3.2494317,13.7281696 3.97561511,13.0019862 4.87445751,13.0019862 C5.77329992,13.0019862 6.49948332,13.7281696 6.49948332,14.627012 C6.49948332,15.5258544 5.77329992,16.2520378 4.87445751,16.2520378 Z M6.49948332,9.75193457 C5.60064092,9.75193457 4.87445751,9.02575116 4.87445751,8.12690876 C4.87445751,7.22806635 5.60064092,6.50188294 6.49948332,6.50188294 C7.39832573,6.50188294 8.12450914,7.22806635 8.12450914,8.12690876 C8.12450914,9.02575116 7.39832573,9.75193457 6.49948332,9.75193457 Z M12.9995866,6.50188294 C12.1007442,6.50188294 11.3745608,5.77569954 11.3745608,4.87685713 C11.3745608,3.97801473 12.1007442,3.25183132 12.9995866,3.25183132 C13.898429,3.25183132 14.6246124,3.97801473 14.6246124,4.87685713 C14.6246124,5.77569954 13.898429,6.50188294 12.9995866,6.50188294 Z M19.4996898,9.75193457 C18.6008474,9.75193457 17.874664,9.02575116 17.874664,8.12690876 C17.874664,7.22806635 18.6008474,6.50188294 19.4996898,6.50188294 C20.3985322,6.50188294 21.1247156,7.22806635 21.1247156,8.12690876 C21.1247156,9.02575116 20.3985322,9.75193457 19.4996898,9.75193457 Z"/>
</svg>
