<svg xmlns="http://www.w3.org/2000/svg" width="30" height="24" viewBox="0 0 30 24">
  <path fill="#4A4A4A" d="M10.4997506,11.999715 C13.8137344,11.999715 16.4996081,9.31384126 16.4996081,5.99985748 C16.4996081,2.6858737 13.8137344,0 10.4997506,0 C7.18576681,0 4.49989311,2.6858737 4.49989311,5.99985748 C4.49989311,9.31384126 7.18576681,11.999715 10.4997506,11.999715 Z M14.6996508,13.4996793 L13.9168569,13.4996793 C12.8762566,13.977793 11.7184716,14.2496615 10.4997506,14.2496615 C9.28102954,14.2496615 8.12793193,13.977793 7.08264426,13.4996793 L6.29985035,13.4996793 C2.82180797,13.4996793 -2.27373675e-13,16.3214873 -2.27373675e-13,19.7995297 L-2.27373675e-13,21.7494834 C-2.27373675e-13,22.9916413 1.00778856,23.9994299 2.24994655,23.9994299 L15.135578,23.9994299 C15.0230806,23.6806875 14.9762068,23.3431955 15.0137059,23.0010161 L15.3324483,20.1463964 L15.388697,19.6260963 L15.7590007,19.2557926 L19.3823521,15.6324412 C18.2339419,14.3340345 16.5699189,13.4996793 14.6996508,13.4996793 L14.6996508,13.4996793 Z M16.8230379,20.310455 L16.5042955,23.1697621 C16.4527342,23.6478758 16.8558496,24.0509912 17.3292759,23.9947425 L20.1838955,23.6760001 L26.6478045,17.2120911 L23.2869468,13.8512335 L16.8230379,20.310455 L16.8230379,20.310455 Z M29.6711702,12.6043881 L27.8946499,10.8278678 C27.4587227,10.3919406 26.7462397,10.3919406 26.3103125,10.8278678 L24.5384796,12.5997007 L24.3462967,12.7918836 L27.7118417,16.1527413 L29.6711702,14.1934128 C30.1070973,13.7527983 30.1070973,13.0450026 29.6711702,12.6043881 L29.6711702,12.6043881 Z"/>
</svg>
