<svg xmlns="http://www.w3.org/2000/svg" width="22" height="32" viewBox="0 0 22 32">
  <path fill="currentColor" d="M21,12 L20,12 C19.4475,12 19,12.4475 19,13 L19,16 C19,20.675 14.969375,24.42625 10.200625,23.96125 C6.044375,23.555625 3,19.819375 3,15.64375 L3,13 C3,12.4475 2.5525,12 2,12 L1,12 C0.4475,12 1.77635684e-15,12.4475 1.77635684e-15,13 L1.77635684e-15,15.51 C1.77635684e-15,21.1125 3.998125,26.106875 9.5,26.865625 L9.5,29 L6,29 C5.4475,29 5,29.4475 5,30 L5,31 C5,31.5525 5.4475,32 6,32 L16,32 C16.5525,32 17,31.5525 17,31 L17,30 C17,29.4475 16.5525,29 16,29 L12.5,29 L12.5,26.889375 C17.856875,26.154375 22,21.55625 22,16 L22,13 C22,12.4475 21.5525,12 21,12 Z M11,22 C14.31375,22 17,19.31375 17,16 L11.666875,16 C11.29875,16 11,15.77625 11,15.5 L11,14.5 C11,14.22375 11.29875,14 11.666875,14 L17,14 L17,12 L11.666875,12 C11.29875,12 11,11.77625 11,11.5 L11,10.5 C11,10.22375 11.29875,10 11.666875,10 L17,10 L17,8 L11.666875,8 C11.29875,8 11,7.77625 11,7.5 L11,6.5 C11,6.22375 11.29875,6 11.666875,6 L17,6 C17,2.68625 14.31375,0 11,0 C7.68625,0 5,2.68625 5,6 L5,16 C5,19.31375 7.68625,22 11,22 Z"/>
</svg>
