<svg xmlns="http://www.w3.org/2000/svg" width="29" height="35" viewBox="0 0 29 35">
  <g fill="none" transform="translate(0 .317)">
    <path fill="#FFBB85" d="M22.1578979,8.17378666 C22.1578979,10.4200437 21.3509064,12.3643833 19.7589722,13.9537234 C18.167038,15.5428047 16.2189483,16.3483501 13.9686584,16.3483501 L13.9647675,16.3483501 C11.7173309,16.3475733 9.7705383,15.5420279 8.17860411,13.9537234 C6.58641054,12.3643833 5.77967833,10.4200437 5.77967833,8.17378666 C5.77967833,5.92830632 6.58641054,3.98370789 8.17860411,2.39462663 C9.76976015,0.806063208 11.7165527,0.000776806936 13.9647675,0 L13.9686584,0 C16.2181701,0 18.1662598,0.805545372 19.7589722,2.39462663 C21.3509064,3.98370789 22.1578979,5.92830632 22.1578979,8.17378666 Z"/>
    <path fill="#6AA9FF" d="M28.3666229,28.1021657 C28.3666229,29.8743137 27.8019104,31.30907 26.6896057,32.3657818 C25.590271,33.4100648 24.1363373,33.9390681 22.3685303,33.9390681 L5.99731445,33.9390681 C4.22950743,33.9390681 2.77557373,33.4100648 1.6770172,32.3657818 C0.563934359,31.3082932 0,29.8737958 0,28.1021657 C0,27.4206499 0.0225677656,26.7463845 0.0677032305,26.0980124 C0.113616977,25.43514 0.206481934,24.7137483 0.343444824,23.9527397 C0.481445312,23.1855167 0.658874512,22.460241 0.871322648,21.7973685 C1.09181212,21.111192 1.39012148,20.4343371 1.75924686,19.785965 C2.14263916,19.1129942 2.59295654,18.5267664 3.09774784,18.0441124 C3.62692264,17.5389311 4.27386475,17.1331807 5.02171327,16.8374774 C5.76696777,16.5433278 6.59315489,16.3941815 7.47718809,16.3941815 C7.82400509,16.3941815 8.15992735,16.5358187 8.80738829,16.9568463 C9.21257021,17.2207005 9.67948915,17.5210646 10.1949158,17.8499115 C10.6400451,18.1331859 11.2428894,18.3988527 11.9881439,18.638885 C12.6431274,18.8504346 13.3079682,18.9685087 13.9647675,18.9889645 C14.0371399,18.9915539 14.1095123,18.9928486 14.1818848,18.9928486 C14.9113159,18.9928486 15.6490479,18.8734797 16.3764038,18.638885 C17.1216583,18.3988527 17.7252808,18.1331859 18.1701508,17.8499115 C18.6910248,17.5176985 19.1579437,17.2175934 19.5571594,16.957623 C20.2051392,16.5358187 20.5405426,16.3941815 20.8881378,16.3941815 C21.7713928,16.3941815 22.59758,16.5433278 23.3433533,16.8374774 C24.0912018,17.1331807 24.7381439,17.5397079 25.2667999,18.0441124 C25.7723694,18.5267664 26.2226867,19.1129942 26.6058197,19.785965 C26.9752045,20.434855 27.2740326,21.111192 27.4937439,21.7965917 C27.7064514,22.460241 27.8843994,23.1855167 28.0223999,23.9532576 C28.1585846,24.7150429 28.251709,25.4364346 28.2973633,26.0974945 C28.343277,26.7437951 28.3658447,27.4180606 28.3666229,28.1021657 L28.3666229,28.1021657 Z"/>
    <path fill="#F5A86C" d="M13.9686584,16.3483501 L13.9647675,16.3483501 L13.9647675,0 L13.9686584,0 C16.2181701,0 18.1662598,0.805545372 19.7589722,2.39462663 C21.3509064,3.98370789 22.1578979,5.92830632 22.1578979,8.17378666 C22.1578979,10.4200437 21.3509064,12.3643833 19.7589722,13.9537234 C18.167038,15.5428047 16.2189483,16.3483501 13.9686584,16.3483501 Z"/>
    <path fill="#2682FF" d="M28.3666229,28.1021657 C28.3666229,29.8743137 27.8019104,31.30907 26.6896057,32.3657818 C25.590271,33.4100648 24.1363373,33.9390681 22.3685303,33.9390681 L13.9647675,33.9390681 L13.9647675,18.9889645 C14.0371399,18.9915539 14.1095123,18.9928486 14.1818848,18.9928486 C14.9113159,18.9928486 15.6490479,18.8734797 16.3764038,18.638885 C17.1216583,18.3988527 17.7252808,18.1331859 18.1701508,17.8499115 C18.6910248,17.5176985 19.1579437,17.2175934 19.5571594,16.957623 C20.2051392,16.5358187 20.5405426,16.3941815 20.8881378,16.3941815 C21.7713928,16.3941815 22.59758,16.5433278 23.3433533,16.8374774 C24.0912018,17.1331807 24.7381439,17.5397079 25.2667999,18.0441124 C25.7723694,18.5267664 26.2226867,19.1129942 26.6058197,19.785965 C26.9752045,20.434855 27.2740326,21.111192 27.4937439,21.7965917 C27.7064514,22.460241 27.8843994,23.1855167 28.0223999,23.9532576 C28.1585846,24.7150429 28.251709,25.4364346 28.2973633,26.0974945 C28.343277,26.7437951 28.3658447,27.4180606 28.3666229,28.1021657 L28.3666229,28.1021657 Z"/>
  </g>
</svg>
