<svg xmlns="http://www.w3.org/2000/svg" width="36" height="37" viewBox="0 0 36 37">
  <g fill="none" transform="translate(0 .192)">
    <path fill="#395166" d="M24.7792208,1.71121352 L25.7142857,0.777824326 C25.9622802,0.530273878 26.2986332,0.391201453 26.6493506,0.391201453 C27.0000681,0.391201453 27.3364211,0.530273878 27.5844156,0.777824326 C27.8324105,1.0253744 27.9717326,1.36112458 27.9717326,1.71121352 C27.9717326,2.06130246 27.8324105,2.39705263 27.5844156,2.64460271 L26.6493506,3.5779919 L24.7792208,1.71121352 Z"/>
    <path fill="#E88604" d="M16.0519481,16.6454406 L15.4285714,17.2677 C15.097912,17.5977671 14.6494414,17.7831969 14.1818182,17.7831969 C13.714195,17.7831969 13.2657244,17.5977671 12.9350649,17.2677 L11.0649351,19.1344784 C11.8915832,19.959647 13.0127598,20.423222 14.1818182,20.423222 C15.3508765,20.423222 16.4720531,19.959647 17.2987013,19.1344784 L17.9220779,18.512219 L16.0519481,16.6454406 Z"/>
    <path fill="#F4CEAF" d="M12.9350649,17.2677 L12,16.3343109 C11.7520055,16.0867604 11.4156525,15.947688 11.0649351,15.947688 C10.7142176,15.947688 10.3778646,16.0867604 10.1298701,16.3343109 C9.88187525,16.5818609 9.74255314,16.9176111 9.74255314,17.2677 C9.74255314,17.617789 9.88187525,17.9535392 10.1298701,18.2010892 L11.0649351,19.1344784 L12.9350649,17.2677 Z"/>
    <polygon fill="#395166" points="5.994 12.813 23.608 12.828 23.609 14.074 5.996 14.058" transform="rotate(-45 14.802 13.443)"/>
    <path fill="#EFA702" d="M22.2857143,20.1650957 L22.2857143,27.8461109 L12.9350649,27.8461109 L12.9350649,27.1095112 C12.9347176,22.7207398 14.2361713,18.4301209 16.6753247,14.7786622 L13.5584416,11.0451054 L15.3007683,9.59602805 C16.3985642,8.68298898 17.9773049,8.6307077 19.1333096,9.46911033 C20.2893143,10.307513 20.7273238,11.8224601 20.1966187,13.1467868 L19.7922078,14.1564027 C21.3882402,15.7503087 22.2850946,17.9114912 22.2857143,20.1650957 Z"/>
    <path fill="#F4CEAF" d="M18.5454545,21.0012568 L17.6103896,21.934646 C17.3623947,22.1821961 17.2230726,22.5179463 17.2230726,22.8680352 C17.2230726,23.2181241 17.3623947,23.5538743 17.6103896,23.8014244 C17.8583841,24.0489748 18.1947371,24.1880473 18.5454545,24.1880473 C18.896172,24.1880473 19.232525,24.0489748 19.4805195,23.8014244 L20.4155844,22.8680352 L18.5454545,21.0012568 Z"/>
    <path fill="#E88604" d="M22.2857143,20.1650957 L22.2857143,22.4223419 C22.0228276,22.9100486 21.68967,23.3566095 21.2968878,23.7477545 L20.3618229,24.6811437 C19.712897,25.3289066 18.7670669,25.5818869 17.8806176,25.3447892 C16.9941683,25.1076915 16.3017727,24.4165366 16.0642493,23.531676 C15.8267259,22.6468154 16.0801603,21.7026803 16.7290862,21.0549174 L17.6641512,20.1215282 C17.8651945,19.9197318 17.8651945,19.5937346 17.6641512,19.3919383 L17.0407745,18.7696788 L17.9220779,17.8899595 L18.5454545,18.512219 C19.2327329,19.2000784 19.2327329,20.3133974 18.5454545,21.0012568 L17.6103896,21.934646 C17.0939675,22.4501426 17.0939675,23.2859278 17.6103896,23.8014244 C18.1268117,24.316921 18.9640974,24.316921 19.4805195,23.8014244 L20.4155844,22.8680352 C21.2423035,22.0429051 21.7067585,20.923724 21.7067585,19.7567379 C21.7067585,18.5897517 21.2423035,17.4705707 20.4155844,16.6454406 L19.7922078,16.0231811 L20.6540306,15.1629027 C21.714517,16.615928 22.2858201,18.3673509 22.2857143,20.1650957 Z"/>
    <polygon fill="#F4CEAF" points="15.429 27.846 16.052 30.335 17.922 30.335 17.922 27.846"/>
    <polygon fill="#395166" points="15.429 30.335 18.545 30.335 18.545 32.202 15.429 32.202"/>
    <path fill="#395166" d="M18.5454545,32.2019271 L18.4418119,32.8241866 L17.9220779,35.9354839 L14.8051948,35.9354839 C14.8051948,35.1726833 15.2368482,34.4753212 15.9202644,34.1340303 L16.0519481,34.0687055 L15.6366171,32.8241866 L15.4285714,32.2019271 L18.5454545,32.2019271 Z"/>
    <polygon fill="#2F4054" points="18.545 32.202 18.442 32.824 15.637 32.824 15.429 32.202"/>
    <polygon fill="#F4CEAF" points="17.922 27.846 18.545 30.335 20.416 30.335 20.416 27.846"/>
    <path fill="#2F4054" d="M18.5454545,30.3351487 L18.5454545,32.2019271 L18.4418119,32.8241866 L17.9220779,35.9354839 L16.6753099,35.9354839 C16.6724482,35.0783262 17.0897618,34.2739601 17.7927343,33.781693 L17.4732468,32.8241866 L17.2987013,32.3030443 L17.2987013,30.3351487 L18.5454545,30.3351487 Z"/>
    <polygon fill="#262D43" points="18.545 32.202 18.442 32.824 17.473 32.824 17.299 32.303 17.299 32.202"/>
    <polygon fill="#395166" points="17.922 30.335 21.039 30.335 21.039 32.202 17.922 32.202"/>
    <path fill="#395166" d="M21.038961,32.2019271 L20.9353184,32.8241866 L20.4155844,35.9354839 L17.2987013,35.9354839 C17.2987013,35.1726833 17.7303547,34.4753212 18.4137709,34.1340303 L18.5454545,34.0687055 L18.1301236,32.8241866 L17.9220779,32.2019271 L21.038961,32.2019271 Z"/>
    <polygon fill="#2F4054" points="21.039 32.202 20.935 32.824 18.13 32.824 17.922 32.202"/>
    <path fill="#E44B4D" d="M14.1818182,2.95573244 C16.2475066,2.95573244 17.9220779,4.62730274 17.9220779,6.68928921 C19.9877663,6.68928921 21.6623377,8.36085951 21.6623377,10.422846 C23.7280261,10.422846 25.4025974,12.0944163 25.4025974,14.1564027 L26.0259795,13.5341378 C29.124509,10.4411611 29.124509,5.42645516 26.0259795,2.33347842 L26.0259686,2.33346753 C22.9274389,-0.759509048 17.9037299,-0.759509048 14.8052003,2.33346753 L14.1818182,2.95573244 Z"/>
    <path fill="#D14547" d="M20.1705561 5.55050617L19.4138595 4.56136253C20.6086484 3.65084478 21.9057984 2.88261173 23.2789925 2.27224965L23.7859426 3.40921024C22.5014744 3.98016565 21.2881401 4.69879085 20.1705561 5.55050617L20.1705561 5.55050617zM23.7940847 8.93373786L22.8031652 8.17839732C23.6564096 7.06281614 24.376325 5.85165625 24.9483055 4.56949001L26.0873073 5.07553163C25.4758494 6.44626474 24.7062371 7.74109015 23.7940847 8.93373786L23.7940847 8.93373786z"/>
    <g fill="#8ACCE7">
      <polygon points="1.95 5.132 4.592 5.134 4.593 6.38 1.951 6.377" transform="rotate(-45 3.271 5.756)"/>
      <polygon points="6.936 2.021 9.578 2.024 9.58 3.269 6.938 3.267" transform="rotate(-45 8.258 2.645)"/>
      <polygon points="10.053 5.755 12.695 5.757 12.696 7.003 10.054 7" transform="rotate(-45 11.374 6.379)"/>
      <polygon points="5.066 10.11 7.708 10.112 7.709 11.358 5.067 11.355" transform="rotate(-45 6.387 10.734)"/>
      <polygon points="3.819 15.087 6.461 15.089 6.462 16.335 3.82 16.333" transform="rotate(-45 5.14 15.711)"/>
      <polygon points="29.999 5.135 32.641 5.137 32.642 6.383 30 6.38" transform="rotate(-45 31.32 5.759)"/>
      <polygon points="33.115 8.868 35.757 8.871 35.758 10.116 33.116 10.114" transform="rotate(-45 34.436 9.492)"/>
      <polygon points="28.128 13.223 30.77 13.225 30.771 14.471 28.129 14.469" transform="rotate(-45 29.45 13.847)"/>
      <polygon points="26.881 18.2 29.523 18.203 29.524 19.448 26.882 19.446" transform="rotate(-45 28.202 18.824)"/>
      <polygon points="31.867 16.957 34.509 16.959 34.51 18.204 31.868 18.202" transform="rotate(-45 33.189 17.58)"/>
      <polygon points="30.62 21.934 33.262 21.936 33.263 23.182 30.621 23.18" transform="rotate(-45 31.942 22.558)"/>
      <polygon points=".079 11.353 2.721 11.356 2.722 12.601 .08 12.599" transform="rotate(-45 1.4 11.977)"/>
      <polygon points=".08 .776 2.722 .779 2.723 2.024 .081 2.022" transform="rotate(-45 1.402 1.4)"/>
    </g>
  </g>
</svg>
