<svg xmlns="http://www.w3.org/2000/svg" width="82" height="103" viewBox="0 0 82 103">
  <g fill="none" fill-rule="evenodd">
    <path fill="#FFE4C1" fill-rule="nonzero" d="M78.9998,102.3994 L48.6482,102.3994 C46.9914,102.3994 45.6482,101.0562 45.6482,99.3994 L45.6482,91.4 L28.2004,91.4 C17.8338,91.4 9.4,82.9662 9.4,72.5994 L9.4,65.2 L3,65.2 C1.9464,65.2 0.9702,64.6474 0.4278,63.744 C-0.1144,62.8406 -0.143,61.719 0.3524,60.7894 L9.4002,43.8074 L9.4002,36.3 C9.4002,26.6408 13.1862,17.535 20.0608,10.6606 C26.9354,3.7862 36.0404,0 45.6998,0 C55.359,0 64.4646,3.786 71.3392,10.6606 C78.2138,17.5352 81.9998,26.6408 81.9998,36.3 L81.9998,99.3994 C81.9998,101.0562 80.6566,102.3994 78.9998,102.3994 Z"/>
    <path fill="#FDD1A3" fill-rule="nonzero" d="M71.3392,10.6606 C64.4646,3.786 55.359,0 45.6998,0 C45.683,0 45.6664,0 45.6498,0 L45.6498,99.4308 C45.6668,101.073 47.002,102.3994 48.6482,102.3994 L78.9998,102.3994 C80.6566,102.3994 81.9998,101.0562 81.9998,99.3994 L81.9998,36.3 C81.9998,26.6408 78.2136,17.535 71.3392,10.6606 Z"/>
    <path fill="#FDBF00" fill-rule="nonzero" d="M45.655,60.6998 C32.256,60.6998 21.355,49.799 21.355,36.3998 C21.355,23.0006 32.256,12.0998 45.655,12.0998 C59.054,12.0998 69.955,23.0008 69.955,36.3998 C69.955,49.7988 59.054,60.6998 45.655,60.6998 Z"/>
    <path fill="#FF8856" fill-rule="nonzero" d="M45.7114,12.1006 L45.7114,60.699 C59.0846,60.6684 69.955,49.78 69.955,36.3998 C69.955,23.0196 59.0846,12.1312 45.7114,12.1006 Z"/>
    <circle cx="39.455" cy="30.5" r="3" fill="#FFDE46"/>
    <circle cx="51.855" cy="30.5" r="3" fill="#FFCD00"/>
    <path fill="#FFDE46" fill-rule="nonzero" d="M45.6506,48.3998 C41.9768,48.3998 38.5616,46.5782 36.5148,43.527 C35.5918,42.151 35.9592,40.2874 37.3352,39.3644 C38.7108,38.4414 40.5744,38.8086 41.4978,40.1846 C42.4282,41.5716 43.9806,42.3998 45.6508,42.3998 C47.3032,42.3998 48.8464,41.5856 49.7788,40.2216 C50.7138,38.8538 52.5802,38.503 53.9486,39.4382 C55.3164,40.3732 55.6672,42.2402 54.732,43.6078 C52.6802,46.6084 49.2856,48.3998 45.6506,48.3998 L45.6506,48.3998 Z"/>
    <path fill="#FFCD00" fill-rule="nonzero" d="M53.9482,39.438 C52.5798,38.503 50.7134,38.8538 49.7784,40.2214 C48.8574,41.5686 47.3406,42.378 45.7114,42.3978 L45.7114,48.3978 C49.3232,48.3778 52.6916,46.5914 54.7316,43.6076 C55.6668,42.24 55.316,40.3732 53.9482,39.438 L53.9482,39.438 Z"/>
  </g>
</svg>
