<svg xmlns="http://www.w3.org/2000/svg" width="45" height="45" viewBox="0 0 45 45">
  <g fill="none">
    <path fill="#FEDB41" d="M42.3632813,30.1816406 C42.3632813,31.8164063 41.0449219,33.1347656 39.4101563,33.1347656 L36.7734375,33.1347656 C38.4082031,33.1347656 39.7265625,34.453125 39.7265625,36.0878906 C39.7265625,37.7490234 38.4082031,39.0673828 36.7734375,39.0673828 L34.1367188,39.0673828 C35.7714844,39.0673828 37.0898438,40.3857422 37.0898438,42.046875 C37.0898438,43.6816406 35.7714844,45 34.1367188,45 L25.2246094,45 C21.5331152,44.0770605 23.6952246,44.6044043 14.6777344,42.3632813 L14.6777344,21.2695312 C14.7041016,21.2695312 20.372959,19.7401465 23.1678809,18.3164062 C25.6463965,17.0770605 27.3603516,12.7001953 27.7559473,9.45694336 C27.8085937,9.06152344 28.0459863,8.69238281 28.3887598,8.48135742 C28.6259766,8.34952148 28.8897363,8.29678711 29.1797754,8.3231543 C29.2851562,8.29678711 29.417168,8.3231543 29.5225488,8.37597656 C31.6846582,9.16699219 33.0294727,11.3818359 32.6866113,13.6757812 C32.1328125,17.3408203 31.6053809,18.6328125 30.6298828,21.2695312 L39.4101563,21.2695312 C41.0449219,21.2695312 42.3632813,22.5878906 42.3632813,24.2226563 C42.3632813,25.8837891 41.0449219,27.2021484 39.4101563,27.2021484 C41.0449219,27.2021484 42.3632813,28.5205078 42.3632813,30.1816406 Z"/>
    <path fill="#FCBF29" d="M42.3632813,30.1816406 C42.3632813,31.8164063 41.0449219,33.1347656 39.4101563,33.1347656 L36.7734375,33.1347656 C38.4082031,33.1347656 39.7265625,34.453125 39.7265625,36.0878906 C39.7265625,37.7490234 38.4082031,39.0673828 36.7734375,39.0673828 L34.1367188,39.0673828 C35.7714844,39.0673828 37.0898438,40.3857422 37.0898438,42.046875 C37.0898438,43.6816406 35.7714844,45 34.1367188,45 L29.1796875,45 L29.1796875,8.3231543 C29.2850684,8.29678711 29.4170801,8.3231543 29.5224609,8.37597656 C31.6845703,9.16699219 33.0293848,11.3818359 32.6865234,13.6757812 C32.1328125,17.3408203 31.6053809,18.6328125 30.6298828,21.2695313 L39.4101563,21.2695313 C41.0449219,21.2695313 42.3632813,22.5878906 42.3632813,24.2226563 C42.3632813,25.8837891 41.0449219,27.2021484 39.4101563,27.2021484 C41.0449219,27.2021484 42.3632813,28.5205078 42.3632813,30.1816406 Z"/>
    <path fill="#C8C6CD" d="M6.59179687,42.3632813 L1.31835937,42.3632813 C0.589658203,42.3632813 0,41.773623 0,41.0449219 L0,22.5878906 C0,21.8591895 0.589658203,21.2695313 1.31835937,21.2695313 L6.59179687,21.2695313 C7.32049805,21.2695313 7.91015625,21.8591895 7.91015625,22.5878906 L7.91015625,41.0449219 C7.91015625,41.773623 7.32049805,42.3632813 6.59179687,42.3632813 Z"/>
    <path fill="#FEA832" d="M17.1386719 1.31835938L17.1386719 4.13085938C17.1386719 4.86905273 16.5586816 5.44921875 15.8203125 5.44921875 15.0819434 5.44921875 14.5019531 4.86905273 14.5019531 4.13085938L14.5019531 1.31835938C14.5019531.579990234 15.0819434 0 15.8203125 0 16.5586816 0 17.1386719.579990234 17.1386719 1.31835938zM6.4978418 8.53787109L4.63359375 6.67362305C4.11864258 6.15867187 4.11864258 5.32432617 4.63359375 4.809375 5.14854492 4.29442383 5.98289063 4.29442383 6.4978418 4.809375L8.36208984 6.67362305C8.87704102 7.18857422 8.87704102 8.02291992 8.36208984 8.53787109 7.84705078 9.05282227 7.01279297 9.05282227 6.4978418 8.53787109zM3.95507813 17.3144531L1.31835938 17.3144531C.589658203 17.3144531 0 16.7247949 0 15.9960937 0 15.2673926.589658203 14.6777344 1.31835938 14.6777344L3.95507813 14.6777344C4.6837793 14.6777344 5.2734375 15.2673926 5.2734375 15.9960937 5.2734375 16.7247949 4.6837793 17.3144531 3.95507813 17.3144531z" transform="translate(13.36)"/>
    <path fill="#FE9923" d="M14.5019531 17.3144531L11.8652344 17.3144531C11.1365332 17.3144531 10.546875 16.7247949 10.546875 15.9960937 10.546875 15.2673926 11.1365332 14.6777344 11.8652344 14.6777344L14.5019531 14.6777344C15.2306543 14.6777344 15.8203125 15.2673926 15.8203125 15.9960937 15.8203125 16.7247949 15.2306543 17.3144531 14.5019531 17.3144531zM7.45822266 8.53787109C6.94327148 8.02291992 6.94327148 7.18857422 7.45822266 6.67362305L9.3224707 4.809375C9.83742188 4.29442383 10.6717676 4.29442383 11.1867188 4.809375 11.7016699 5.32432617 11.7016699 6.15867187 11.1867188 6.67362305L9.3224707 8.53787109C8.80751953 9.05282227 7.97326172 9.05282227 7.45822266 8.53787109zM0 5.44921875L0 0C.738369141 0 1.31835938.579990234 1.31835938 1.31835938L1.31835938 4.13085938C1.31835938 4.86905273.738369141 5.44921875 0 5.44921875z" transform="translate(29.18)"/>
    <path fill="#E5E5E5" d="M12.0410156,45 L6.59179688,45 C5.86371094,45 5.2734375,44.4097266 5.2734375,43.6816406 L5.2734375,21.2695313 L15.9960937,21.2695313 L15.9960937,41.0449219 C15.9960937,43.2292676 14.2253613,45 12.0410156,45 Z"/>
  </g>
</svg>
