<svg xmlns="http://www.w3.org/2000/svg" width="96" height="96" viewBox="0 0 96 96">
  <g fill="none" opacity=".4">
    <path fill="#FFB74D" d="M54 78.04C54.08 82.8 56.36 87.24 60 90.04L60 93C60 94.64 61.36 96 63 96L93 96C94.64 96 96 94.64 96 93L96 74.48C96 67.36 93.24 60.68 88.28 55.56L80.76 47.92C80.12 47.28 79.32 46.96 78.44 47 77.56 47.04 76.76 47.48 76.24 48.16L71.6 54.16 63.36 64.88 54.64 76.16C54.2 76.72 54 77.36 54 78.04L54 78.04zM41.36 76.16L32.64 64.88 24.4 54.16 19.76 48.16C19.24 47.48 18.44 47.04 17.56 47 16.68 46.96 15.88 47.28 15.24 47.92L7.72 55.56C2.76 60.68 0 67.36 0 74.48L0 93C0 94.64 1.36 96 3 96L33 96C34.64 96 36 94.64 36 93L36 90.04C39.64 87.24 41.92 82.8 42 78.04 42 77.36 41.8 76.72 41.36 76.16L41.36 76.16z"/>
    <path fill="#ECEFF1" d="M77,80 L19,80 C17.344,80 16,78.656 16,77 L16,7 C16,3.14 19.14,0 23,0 L73,0 C76.86,0 80,3.14 80,7 L80,77 C80,78.656 78.656,80 77,80 Z"/>
    <path fill="#CDD0D2" d="M48,0 L23,0 C19.14,0 16,3.14 16,7 L16,77 C16,78.656 17.344,80 19,80 L48,80 L48,0 Z"/>
    <path fill="#FFCC80" d="M33.96 55.04C33.16 53.48 31.64 52.4 29.88 52.08 28.08 51.8 26.24 52.36 24.96 53.6L24.4 54.16 11.16 66.96 2.66453526e-15 77.36 2.66453526e-15 93C2.66453526e-15 94.64 1.36 96 3 96L20 96 20 91.132 26.08 86.2C27.84 84.04 28.8 81.44 28.8 78.68 28.8 76.36 28.12 74.16 26.92 72.28L32.64 64.88 33.12 64.28C35.16 61.64 35.52 58 33.96 55.04L33.96 55.04zM62.88 64.28L63.36 64.88 69.08 72.28C67.88 74.16 67.2 76.36 67.2 78.68 67.2 81.44 68.16 84.04 69.92 86.2L76 91.132 76 96 93 96C94.64 96 96 94.64 96 93L96 77.36 84.84 66.96 71.6 54.16 71.04 53.6C69.76 52.36 67.92 51.8 66.12 52.08 64.36 52.4 62.84 53.48 62.04 55.04 60.48 58 60.84 61.64 62.88 64.28L62.88 64.28z"/>
    <path fill="#2196F3" d="M68,32 C68,43.036 59.036,52 48,52 C42.464,52 37.464,49.764 33.868,46.132 L48,32 L48,12 C59.036,12 68,20.964 68,32 Z"/>
    <path fill="#FFC107" d="M48,12 L48,32 L33.868,46.132 C30.236,42.536 28,37.536 28,32 C28,20.964 36.964,12 48,12 Z"/>
    <path fill="#1D83D4" d="M68,32 L48,32 L33.868,46.132 C37.464,49.764 42.464,52 48,52 C59.036,52 68,43.036 68,32 Z"/>
    <path fill="#DEA806" d="M48,32 L28,32 C28,37.536 30.236,42.536 33.868,46.132 L48,32 Z"/>
  </g>
</svg>
