<svg xmlns="http://www.w3.org/2000/svg" width="74" height="96" viewBox="0 0 74 96">
  <g fill="none" opacity=".6">
    <polygon fill="#54678C" points="56.25 17.25 16.875 17.25 16.875 0 56.25 0"/>
    <polygon fill="#3D4466" points="36.563 0 56.25 0 56.25 17.25 36.563 17.25"/>
    <polygon fill="#F3F5F9" points="0 11.625 0 96 73.125 96 73.125 11.625"/>
    <polygon fill="#E1E6F0" points="36.563 11.625 73.125 11.625 73.125 96 36.563 96"/>
    <g transform="translate(16.875 67.875)">
      <polygon fill="#F73" points="11.25 11.25 39.375 11.25 39.375 16.875 11.25 16.875"/>
      <polygon fill="#F73" points="0 11.25 5.625 11.25 5.625 16.875 0 16.875"/>
      <polygon fill="#A1C2E6" points="11.25 0 39.375 0 39.375 5.625 11.25 5.625"/>
      <polygon fill="#F25030" points="19.688 11.25 39.375 11.25 39.375 16.875 19.688 16.875"/>
      <polygon fill="#8AA9E6" points="19.688 0 39.375 0 39.375 5.625 19.688 5.625"/>
      <polygon fill="#A1C2E6" points="0 0 5.625 0 5.625 5.625 0 5.625"/>
    </g>
    <g transform="translate(16.875 22.875)">
      <path fill="#A1C2E6" d="M39.375,19.6875 C39.375,30.54375 30.54375,39.375 19.6875,39.375 C8.83125,39.375 0,30.54375 0,19.6875 C0,8.8876875 8.83125,0 19.6875,0 L24.3586875,13.9059375 L39.375,19.6875 Z"/>
      <path fill="#8AA9E6" d="M39.375,19.6875 L24.3586875,13.9059375 L19.6875,-2.66453526e-15 L19.6875,39.375 C30.54375,39.375 39.375,30.54375 39.375,19.6875 Z"/>
      <path fill="#F25030" d="M39.375,19.6875 L19.6875,19.6875 L19.6875,0 C30.54375,0 39.375,8.8876875 39.375,19.6875 Z"/>
    </g>
  </g>
</svg>
