<svg xmlns="http://www.w3.org/2000/svg" width="28" height="37" viewBox="0 0 28 37">
  <g fill="none" transform="translate(0 .448)">
    <path fill="#607D8B" d="M15.75,29.1273942 L11.25,29.1273942 C10.629,29.1273942 10.125,29.6304909 10.125,30.250378 L10.125,33.9936576 C10.125,35.0253054 10.965,35.8652974 12,35.8652974 L15,35.8652974 C16.0335,35.8652974 16.875,35.0268028 16.875,33.9936576 L16.875,30.250378 C16.875,29.6304909 16.371,29.1273942 15.75,29.1273942 Z"/>
    <path fill="#388E3C" d="M26.796,29.5331657 L20.3085,20.8412705 C20.094,20.5552839 19.758,20.387585 19.401,20.3890724 L7.551,20.4399909 C7.194,20.4414882 6.858,20.6121818 6.648,20.901163 L0.2355,29.6514533 C-0.015,29.9928404 -0.051,30.4465259 0.1425,30.8238485 C0.336,31.201171 0.7245,31.4377463 1.149,31.4362561 L25.899,31.3284425 C26.3235,31.3269452 26.7105,31.085878 26.8995,30.7070581 C27.09,30.3282382 27.0495,29.8730554 26.796,29.5331657 L26.796,29.5331657 Z"/>
    <path fill="#43A047" d="M25.2705,20.6615931 L18.7635,12.1403915 C18.5505,11.8618915 18.219,11.6986845 17.868,11.6986845 L9.132,11.6986845 C8.781,11.6986845 8.4495,11.8618915 8.2365,12.1403915 L1.7295,20.6615931 C1.47,21.0014829 1.4265,21.4566657 1.6155,21.8399775 C1.806,22.2232893 2.196,22.4643565 2.6235,22.4643565 L24.3735,22.4643565 C24.801,22.4643565 25.191,22.2232893 25.3815,21.8399775 C25.5735,21.4566657 25.5285,20.9999856 25.2705,20.6615931 Z"/>
    <path fill="#66BB6A" d="M22.296,11.7121603 L14.421,0.482321573 C14.001,-0.116603159 12.999,-0.116603159 12.5775,0.482321573 L4.7025,11.7121603 C4.461,12.0550447 4.4325,12.5042382 4.626,12.8755716 C4.821,13.2484022 5.205,13.4804856 5.625,13.4804856 L21.375,13.4804856 C21.795,13.4804856 22.179,13.2484022 22.3725,12.8770689 C22.566,12.5042382 22.5375,12.056542 22.296,11.7121603 L22.296,11.7121603 Z"/>
    <path fill="#546D79" d="M13.5,31.3823458 L10.125,31.3973189 L10.125,33.9936576 C10.125,35.0253054 10.965,35.8652974 12,35.8652974 L13.5,35.8652974 L13.5,31.3823458 Z"/>
    <path fill="#317C34" d="M13.5,22.4643565 L5.5035,22.4643565 L0.237,29.6514533 C-0.0135,29.9928404 -0.0495,30.4465259 0.144,30.8238485 C0.336,31.1996737 0.7245,31.436249 1.1475,31.436249 L1.152,31.436249 L10.128,31.3973189 L13.503,31.3823458 L13.503,22.4643565 L13.5,22.4643565 Z"/>
    <path fill="#3A8B3E" d="M13.5,13.4804856 L7.2135,13.4804856 L1.7295,20.6615931 C1.47,21.0014829 1.4265,21.4566657 1.6155,21.8399775 C1.806,22.2232893 2.196,22.4643565 2.6235,22.4643565 L5.502,22.4643565 L13.5,22.4643565 L13.5,13.4804856 Z"/>
    <path fill="#59A35C" d="M13.5,0.0331280242 C13.1445,0.0331280242 12.789,0.182859207 12.579,0.482321573 L4.704,11.7121603 C4.4625,12.0550447 4.434,12.5042382 4.6275,12.8755716 C4.821,13.2484022 5.205,13.4804856 5.625,13.4804856 L7.2135,13.4804856 L13.5,13.4804856 L13.5,0.0331280242 Z"/>
  </g>
</svg>
