<svg xmlns="http://www.w3.org/2000/svg" width="103" height="96" viewBox="0 0 103 96">
  <g fill="none">
    <path fill="#666" d="M48.2,0.0322 L48.2,44.0576 L48.2,49.6 L48.2,83.4062 C48.2,86.5832 45.6154,89.1678 42.4384,89.1678 C39.2614,89.1678 36.6766,86.5832 36.6766,83.4062 L36.6766,79.0454 L30.6766,79.0454 L30.6766,83.4062 C30.6766,89.8916 35.953,95.1678 42.4384,95.1678 C48.9238,95.1678 54.2,89.8916 54.2,83.4062 L54.2,49.6 L54.2,44.0576 L54.2,0.0322 L48.2,0.0322 Z"/>
    <path fill="#FF6536" d="M51.2,4.9974 C25.3452,4.9974 3.9138,23.9252 0,48.6794 L0,48.6794 C10.988,44.4672 23.1454,44.4672 34.1332,48.6794 L34.1332,48.6794 L34.1332,48.6794 C45.1212,44.4672 57.2786,44.4672 68.2666,48.6794 L68.2666,48.6794 L68.2666,48.6794 C79.2546,44.4672 91.412,44.4672 102.4,48.6794 L102.4,48.6794 C98.4862,23.9252 77.0548,4.9974 51.2,4.9974 Z"/>
    <path fill="#FF421D" d="M51.2,4.9974 C40.589,14.663 34.0092,31.504 34.1334,48.6794 L34.1334,48.6794 L34.1334,48.6794 C45.1214,44.4672 57.2788,44.4672 68.2668,48.6794 L68.2668,48.6794 L68.2668,48.6794 C68.3908,31.504 61.811,14.663 51.2,4.9974 Z"/>
    <path fill="#DE0418" d="M51.2,4.9974 C61.811,14.663 68.3908,31.504 68.2666,48.6794 C79.2544,44.4672 91.412,44.4672 102.4,48.6794 L102.4,48.6794 C98.4862,23.9252 77.0548,4.9974 51.2,4.9974 Z"/>
    <path fill="#FF421D" d="M35.7098,33.7224 L35.7098,33.7224 L35.7098,33.7224 C25.7618,29.9088 14.7578,29.9002 4.8046,33.6946 C2.485,38.3362 0.839,43.3734 0,48.6796 C10.988,44.4674 23.1454,44.4674 34.1334,48.6796 C34.0968,43.6048 34.6496,38.5608 35.7146,33.7208 C35.713,33.7212 35.7114,33.7218 35.7098,33.7224 Z"/>
    <path fill="#DE0418" d="M35.7146,33.7206 C34.6496,38.5606 34.0968,43.6046 34.1334,48.6794 L34.1334,48.6794 L34.1334,48.6794 C45.1214,44.4672 57.2788,44.4672 68.2668,48.6794 L68.2668,48.6794 L68.2668,48.6794 C68.3034,43.6046 67.7506,38.5606 66.6856,33.7206 C56.7154,29.9 45.6846,29.9 35.7146,33.7206 Z"/>
    <path fill="#A3021A" d="M66.6902,33.7224 L66.6902,33.7224 L66.6902,33.7224 C66.6886,33.7218 66.687,33.7212 66.6854,33.7206 C67.7504,38.5606 68.3032,43.6046 68.2666,48.6794 C79.2544,44.4672 91.412,44.4672 102.4,48.6794 C101.561,43.3732 99.915,38.336 97.5952,33.6944 C87.642,29.9002 76.6382,29.9088 66.6902,33.7224 Z"/>
  </g>
</svg>
